<svg width="542" height="452" fill="none" xmlns="http://www.w3.org/2000/svg"><path d="M101.192 402.258c100.779 65.66 264.239 65.66 365.018 0 100.78-65.66 100.78-172.103 0-237.749-100.779-65.6473-264.239-65.6609-365.018 0-100.779542 65.66-100.816411 172.102 0 237.749Z" fill="#FAFAFA"/><path d="M495.289 159.696c.553-7.619 5.875-20.608 13.753-29.827 7.878-9.219 20.488-13.721 28.267-9.992 7.251 3.484 5.654 14.195-3.908 20.526-9.562 6.332-23.794 14.114-28.673 26.113l-9.439 14.398v-21.218Z" fill="#02897A"/><path opacity=".2" d="M495.289 159.696c.553-7.619 5.875-20.608 13.753-29.827 7.878-9.219 20.488-13.721 28.267-9.992 7.251 3.484 5.654 14.195-3.908 20.526-9.562 6.332-23.794 14.114-28.673 26.113l-9.439 14.398v-21.218Z" fill="#000"/><path d="M534.298 123.402c-9.033 1.898-35.506 20.703-38.972 49.093" stroke="#fff" stroke-miterlimit="10" stroke-linecap="round"/><path d="M496.358 193.903c1.389-4.067 7.436-11.619 16.137-15.32 8.702-3.702 15.265-7.01 18.435-12.975 3.171-5.966-2.347-11.823-11.134-11.402-8.788.42-23.425 10.575-24.458 26.709l1.02 12.988Z" fill="#02897A"/><path d="M524.269 159.032c-7.595.827-26.055 13.178-28.538 27.007" stroke="#fff" stroke-miterlimit="10" stroke-linecap="round"/><path d="M42.3957 232.624c-.3755-10.772-2.5461-21.374-6.4031-31.278-6.477-16.934-19.5783-25.896-26.55913-27.116-6.98082-1.22-14.19516 8.135-5.30936 19.252C13.0099 204.6 30.0441 219.486 34.9356 242.006l8.0009 15.374-.5408-24.756Z" fill="#02897A"/><path opacity=".2" d="M42.3957 232.624c-.3755-10.772-2.5461-21.374-6.4031-31.278-6.477-16.934-19.5783-25.896-26.55913-27.116-6.98082-1.22-14.19516 8.135-5.30936 19.252C13.0099 204.6 30.0441 219.486 34.9356 242.006l8.0009 15.374-.5408-24.756Z" fill="#000"/><path d="M9.43347 179.396c14.33033 9.409 30.93443 34.097 33.25723 66.907" stroke="#fff" stroke-linecap="round" stroke-linejoin="round"/><path d="M41.3019 273.147c-1.9787-8.744-7.1529-17.272-17.4889-25.841-10.3361-8.568-24.150232-15.93-23.019535-24.675 1.130695-8.745 11.601935-8.135 19.271035-4.271 7.669 3.864 20.967 19.768 22.872 38.993l-1.6346 15.794Z" fill="#02897A"/><path d="M8.04468 219.893c9.95502 2.712 31.31542 24.268 34.41252 42.626" stroke="#fff" stroke-linecap="round" stroke-linejoin="round"/><path d="M44.1287 278.543c-.8257-.593-1.5124-1.394-2.0037-2.337-.4913-.942-.7733-2-.823-3.086V77.4135c.0516-1.0854.3345-2.1421.8256-3.0844.4912-.9422 1.1767-1.7435 2.0011-2.3387l63.3803-40.3616c.82-.5643 1.763-.8719 2.729-.8898.966-.0178 1.918.2547 2.754.7884.836.5336 1.525 1.3083 1.992 2.241.468.9326.696 1.988.661 3.053v13.0697c0 1.993 1.229 2.8065 2.839 1.8032l79.309-50.50274c.819-.563576 1.761-.871011 2.725-.889413.965-.018402 1.916.25292 2.752.784933.836.53202 1.525 1.30471 1.993 2.23539.469.93067.699 1.98431.666 3.04816V307.191l-58.452 37.203-103.3483-65.851Z" fill="#263238"/><path d="M203.274 1.09674c-.856-.460621-1.799-.690937-2.752-.672085-.953.018852-1.888.286339-2.729.780555L118.484 51.708c-1.573 1.0033-2.839.1898-2.839-1.8032V36.8351c.035-1.065-.193-2.1204-.66-3.0531-.468-.9326-1.157-1.7073-1.993-2.241-.836-.5337-1.788-.8062-2.754-.7883-.966.0179-1.909.3254-2.729.8897L44.1288 72.004c-.8329.5817-1.5214 1.3832-2.0033 2.3319l36.3544 23.1568L205.929 16.295V6.38428c-.035-1.04943-.293-2.07505-.755-2.9937-.461-.91866-1.112-1.7045-1.9-2.29384Z" fill="#455A64"/><path d="M203.102 4.58106 118.484 58.4733c-1.573 1.0033-2.839.1898-2.839-1.8032V36.835c0-1.9929-1.229-2.8064-2.826-1.8031L49.4381 75.3934c-.8251.5944-1.5112 1.3955-2.0025 2.3379-.4912.9424-.7736 1.9996-.8243 3.0852V269.826c.0501 1.087.3336 2.146.8272 3.089.4936.942 1.1831 1.742 2.0119 2.334l103.3726 65.836 53.106-33.813V6.38425c0-1.99299-1.266-2.7929-2.827-1.80319Z" fill="#37474F"/><path d="M47.447 272.836c.4745.954 1.1646 1.758 2.0033 2.332l103.3727 65.836 53.106-33.813V171.898L47.447 272.836Z" fill="#263238"/><path d="m60.278 315.922-.7743-.488c-.6602-.473-1.2101-1.112-1.6051-1.863-.395-.751-.6241-1.595-.6686-2.462v-183.64c.0416-.868.2694-1.713.6647-2.465.3953-.752.9467-1.389 1.609-1.86L230.214 14.4103c.703-.3941 1.48-.5995 2.268-.5995.788 0 1.565.2054 2.267.5995l.775.5017c.662.4709 1.213 1.1085 1.609 1.8604.395.7519.623 1.5965.664 2.4645V202.837c-.044.867-.273 1.71-.668 2.462-.395.751-.945 1.389-1.605 1.862L64.813 315.922c-.7025.394-1.4794.6-2.2675.6s-1.5651-.206-2.2675-.6Z" fill="#F5F5F5"/><path d="m67.8487 131.306-9.955-6.345c-.406.748-.6342 1.596-.6637 2.467v183.641c.0445.867.2736 1.71.6686 2.462.395.751.9449 1.389 1.6051 1.863l.7743.488c.7024.394 1.4794.599 2.2675.599s1.565-.205 2.2675-.599l3.0357-1.939V131.306Z" fill="#E0E0E0"/><path d="M62.5518 314.444v-183.64c.0422-.866.269-1.709.6619-2.461.3929-.751.9409-1.39 1.5994-1.864L235.524 17.7456c1.229-.7863 2.273-.1491 2.273 1.4507V202.837c-.044.867-.273 1.71-.668 2.462-.395.751-.945 1.389-1.605 1.863L64.8131 315.922c-1.2536.759-2.2613.122-2.2613-1.478Z" fill="#EBEBEB"/><path d="M75.9971 132.892 224.34 38.4212c1.561-1.0032 2.826-.1898 2.826 1.8032V181.822c-.049 1.086-.331 2.143-.823 3.086-.491.943-1.178 1.743-2.003 2.337L75.9971 281.702c-1.5608 1.004-2.8267.19-2.8267-1.803V138.315c.0516-1.085.3345-2.142.8256-3.084.4912-.943 1.1767-1.744 2.0011-2.339Z" fill="#fff"/><path d="M100.516 125.828c9.242-5.884 16.727-1.111 16.727 10.657s-7.485 26.071-16.727 31.956c-9.2422 5.884-16.7269 1.125-16.7269-10.643s7.4847-26.086 16.7269-31.97ZM116.014 168.508c.567-1.166 1.377-2.168 2.362-2.924.986-.755 2.119-1.243 3.308-1.422 1.189-.18 2.4-.047 3.533.388 1.134.435 2.158 1.159 2.989 2.114l19.271 22.14 36.625-99.1207c.537-1.4534 1.433-2.7114 2.587-3.631 1.153-.9195 2.517-1.4639 3.936-1.5712 1.42-.1074 2.838.2267 4.095.9641 1.256.7375 2.299 1.8488 3.011 3.2077l29.411 56.1831v36.986c-.05 1.086-.332 2.143-.823 3.086-.491.943-1.178 1.744-2.004 2.337L75.9971 281.702c-1.5608 1.004-2.8267.19-2.8267-1.803v-23.455l42.8436-87.936Z" fill="#FFB900"/><path d="m92.171 336.259-.7866-.501c-.6585-.475-1.2065-1.113-1.5994-1.865-.3929-.751-.6197-1.594-.662-2.46V147.724c.0423-.866.2691-1.709.662-2.46.3929-.752.9409-1.39 1.5994-1.864L262.107 34.6796c.699-.3994 1.475-.6078 2.262-.6078.787 0 1.562.2084 2.261.6078l.787.4881c.658.474 1.206 1.1127 1.599 1.8642.393.7514.62 1.5945.662 2.4607V223.133c-.035.868-.259 1.714-.653 2.467-.393.752-.945 1.39-1.608 1.858L96.6692 336.259c-.6957.395-1.4667.601-2.2491.601-.7823 0-1.5534-.206-2.2491-.601Z" fill="#F5F5F5"/><path d="m99.7172 151.616-9.955-6.345c-.4045.743-.6327 1.587-.6637 2.453v183.641c.0422.866.269 1.709.6619 2.461.3929.751.9409 1.39 1.5995 1.864l.7866.501c.6988.4 1.4743.608 2.2614.608.787 0 1.5625-.208 2.2614-.608l3.0479-1.938V151.616Z" fill="#E0E0E0"/><path d="M94.4078 334.754v-183.64c.0432-.866.2704-1.709.6632-2.46.3929-.751.9403-1.39 1.5982-1.865L267.392 38.0554c1.229-.7999 2.262-.1492 2.262 1.4371V223.133c-.036.868-.26 1.714-.653 2.466-.394.753-.945 1.39-1.609 1.859L96.6692 336.259c-1.2413.732-2.2614.081-2.2614-1.505Z" fill="#EBEBEB"/><path d="m107.866 153.229 148.342-94.4841c1.561-.9897 2.827-.1763 2.827 1.8032V202.119c-.051 1.085-.333 2.142-.824 3.085-.492.942-1.178 1.743-2.003 2.338l-148.342 94.484c-1.574.99-2.839.19-2.839-1.803V158.652c.051-1.087.335-2.145.828-3.088.494-.943 1.183-1.743 2.011-2.335Z" fill="#fff"/><path d="M132.385 146.138c9.229-5.884 16.726-1.112 16.726 10.656s-7.497 26.072-16.726 31.956c-9.23 5.884-16.727 1.112-16.727-10.657 0-11.768 7.484-26.071 16.727-31.955ZM147.882 188.818c.566-1.166 1.375-2.168 2.359-2.924.984-.755 2.117-1.243 3.305-1.423 1.188-.18 2.398-.046 3.531.389 1.132.435 2.155 1.159 2.985 2.114l19.369 22.14 36.613-99.121c.536-1.457 1.432-2.718 2.587-3.64 1.154-.922 2.52-1.468 3.942-1.576 1.422-.107 2.843.228 4.1.968 1.258.74 2.302 1.855 3.013 3.218l29.398 56.183v36.972c-.051 1.086-.333 2.143-.824 3.086-.492.942-1.178 1.743-2.003 2.338l-148.342 94.484c-1.573.99-2.839.19-2.839-1.803v-23.455l42.806-87.95Z" fill="#11B5E4"/><path d="m124.003 356.473-.775-.488c-.658-.474-1.206-1.113-1.599-1.864-.393-.752-.62-1.595-.662-2.461V168.02c.042-.868.269-1.713.665-2.465.395-.752.946-1.389 1.609-1.86l170.71-108.7339c.703-.3941 1.48-.5995 2.268-.5995.788 0 1.565.2054 2.267.5995l.775.5016c.662.471 1.213 1.1086 1.609 1.8605.395.7519.623 1.5965.664 2.4645V243.428c-.044.867-.273 1.711-.668 2.462-.395.751-.945 1.39-1.605 1.863L128.55 356.473c-.704.396-1.483.603-2.274.603-.79 0-1.569-.207-2.273-.603Z" fill="#F5F5F5"/><path d="m131.586 171.898-9.918-6.345c-.406.748-.635 1.597-.664 2.468v183.64c.042.866.269 1.709.662 2.461.393.751.941 1.39 1.599 1.864l.775.488c.702.394 1.479.6 2.267.6.788 0 1.565-.206 2.268-.6l3.048-1.939-.037-182.637Z" fill="#E0E0E0"/><path d="M126.276 355.037V171.396c.043-.866.269-1.709.662-2.46.393-.752.941-1.39 1.6-1.864l170.71-108.7475c1.229-.7864 2.274-.1491 2.274 1.4507V243.429c-.044.867-.274 1.711-.669 2.462-.395.751-.944 1.39-1.605 1.863l-170.71 108.72c-1.254.8-2.262.122-2.262-1.437Z" fill="#EBEBEB"/><path d="m139.722 173.471 148.342-94.4709c1.561-1.0033 2.827-.1898 2.827 1.8032V222.374c-.051 1.085-.333 2.143-.824 3.085-.492.942-1.178 1.743-2.003 2.338l-148.342 94.498c-1.561 1.003-2.827.189-2.827-1.804V178.88c.054-1.083.337-2.137.828-3.076.491-.94 1.176-1.739 1.999-2.333Z" fill="#fff"/><path d="M164.241 166.42c9.242-5.884 16.727-1.111 16.727 10.657s-7.485 26.072-16.727 31.956c-9.243 5.884-16.764 1.138-16.764-10.643 0-11.782 7.521-26.085 16.764-31.97ZM179.739 209.1c.567-1.166 1.376-2.168 2.362-2.924.985-.755 2.119-1.243 3.308-1.422 1.189-.18 2.399-.047 3.533.388 1.133.435 2.157 1.159 2.988 2.114l19.308 22.14 36.625-99.121c.538-1.453 1.434-2.711 2.587-3.631 1.153-.919 2.517-1.464 3.937-1.571 1.419-.107 2.838.227 4.094.964 1.256.738 2.3 1.849 3.012 3.208l29.41 56.183v36.945c-.055 1.087-.34 2.143-.833 3.085-.493.942-1.18 1.743-2.006 2.339l-148.342 94.497c-1.561 1.004-2.827.19-2.827-1.803v-23.455l42.844-87.936Z" fill="#F03E3D"/><path d="m152.823 341.004 15.928-10.141v20.296l-15.928-10.155Z" fill="#263238"/><path d="M168.751 199.176v148.377c0 1.993-1.229 2.793-2.827 1.803l-13.101-8.352-5.346 3.39 23.72 15.103c.877.495 1.848.753 2.833.753.985 0 1.956-.258 2.833-.753L341.17 254.912c.827-.593 1.515-1.394 2.008-2.336.493-.943.778-2 .831-3.087V94.3339c.032-1.0654-.198-2.1204-.667-3.0524-.469-.9319-1.159-1.7058-1.996-2.239-.836-.5332-1.789-.8057-2.755-.7883-.966.0174-1.91.324-2.73.887L171.59 193.767c-.826.59-1.514 1.389-2.008 2.329-.493.94-.778 1.995-.831 3.08Z" fill="#263238"/><path d="M179.431 202.335 344.12 97.4928v-3.1589c.032-1.0654-.199-2.1204-.668-3.0524-.469-.9319-1.158-1.7058-1.995-2.239-.837-.5332-1.789-.8057-2.755-.7883-.966.0174-1.91.324-2.731.887L171.59 193.767c-.839.574-1.529 1.377-2.003 2.332l9.844 6.236Z" fill="#455A64"/><path d="M341.17 92.5301 176.9 197.156c-.827.593-1.515 1.394-2.008 2.336-.494.943-.778 2-.831 3.087v155.114c0 1.993 1.229 2.807 2.839 1.804l164.27-104.585c.827-.594 1.515-1.394 2.008-2.337.493-.942.778-2 .831-3.086V94.3333c0-1.993-1.278-2.8064-2.839-1.8032Z" fill="#37474F"/><path d="M217.801 293.24c-.314.005-.624-.084-.897-.257-.327-.238-.59-.569-.761-.958-.171-.389-.243-.822-.21-1.252v-75.409c.044-.984.299-1.943.746-2.797.447-.853 1.072-1.577 1.823-2.111l80.451-51.234c.312-.271.689-.433 1.085-.464.395-.031.79.069 1.133.288.343.219.618.547.791.941.172.394.233.836.175 1.268v75.409c-.044.984-.299 1.943-.746 2.797-.447.853-1.072 1.577-1.823 2.111l-80.452 51.302c-.402.246-.855.372-1.315.366Zm82.468-133.097c-.251.013-.494.102-.701.258l-80.452 51.221c-.564.417-1.033.971-1.372 1.62-.339.649-.538 1.375-.582 2.122v75.409c-.022.191-.001.385.061.564.062.18.164.34.296.466.164.066.34.084.512.053.172-.03.334-.109.471-.229l80.451-51.235c.565-.413 1.035-.964 1.374-1.611.339-.647.538-1.372.581-2.117v-75.409c.023-.191.003-.385-.06-.565-.062-.18-.164-.34-.297-.465-.085-.055-.183-.084-.282-.082Z" fill="#FAFAFA"/><path d="M230.767 228.298c-.701.008-1.392-.188-2.003-.569-.759-.575-1.365-1.363-1.754-2.284-.389-.92-.547-1.939-.458-2.95.131-2.604.816-5.138 1.999-7.396 1.183-2.259 2.83-4.179 4.81-5.606.718-.644 1.598-1.032 2.521-1.112.924-.079 1.847.153 2.648.667.801.514 1.441 1.284 1.835 2.209.393.925.523 1.96.37 2.968-.129 2.605-.812 5.14-1.995 7.399-1.183 2.259-2.832 4.179-4.814 5.603-.953.648-2.04 1.017-3.159 1.071Zm5.801-18.52c-.92.045-1.813.354-2.593.895-1.793 1.301-3.284 3.049-4.351 5.102-1.068 2.054-1.682 4.356-1.794 6.72-.163.776-.095 1.589.192 2.319.288.73.781 1.339 1.406 1.737.625.398 1.349.563 2.066.473.717-.091 1.389-.433 1.916-.976 1.792-1.302 3.282-3.05 4.35-5.104 1.067-2.053 1.682-4.355 1.795-6.719.084-.773-.019-1.557-.3-2.272-.28-.715-.728-1.334-1.298-1.795-.422-.266-.903-.397-1.389-.38ZM216.548 287.573c-.089-.021-.173-.063-.246-.122-.072-.04-.135-.096-.187-.163-.053-.068-.092-.147-.116-.231-.024-.085-.032-.174-.025-.262.008-.089.032-.174.07-.253l23.818-51.587c.359-.78.878-1.457 1.517-1.976.639-.518 1.379-.864 2.161-1.009.782-.145 1.584-.085 2.341.174.758.259 1.449.711 2.019 1.32l23.548 25c.057.062.103.136.134.217.031.082.047.169.047.258 0 .088-.016.176-.047.257-.031.082-.077.155-.134.217-.057.064-.125.114-.2.149-.075.034-.155.052-.236.052-.081 0-.162-.018-.237-.052-.074-.035-.142-.085-.199-.149l-23.548-24.932c-.433-.458-.956-.797-1.529-.992-.573-.195-1.178-.239-1.769-.13-.591.109-1.151.37-1.634.76-.484.39-.878.899-1.152 1.487l-23.819 51.601c-.055.115-.138.21-.241.275-.102.064-.218.096-.336.091Z" fill="#FAFAFA"/><path d="M259.035 246.981c-.081.019-.165.019-.246 0-.147-.072-.263-.204-.323-.369s-.058-.349.003-.512l18.436-47.019c.329-.854.852-1.601 1.518-2.169.666-.568 1.453-.937 2.285-1.073.833-.136 1.683-.034 2.47.296.786.33 1.483.878 2.023 1.59l16.763 22.357c.053.067.093.145.118.23.025.084.034.173.027.262-.007.088-.03.174-.067.253-.038.078-.089.148-.151.204-.113.097-.253.149-.396.146-.143-.002-.281-.058-.391-.159l-16.764-22.357c-.402-.538-.922-.953-1.511-1.205-.589-.253-1.227-.333-1.853-.235-.625.098-1.217.371-1.719.794-.503.424-.898.982-1.148 1.622l-18.435 47.005c-.062.122-.156.221-.271.281-.114.061-.243.081-.368.058Z" fill="#FAFAFA"/><path d="M319.367 126.926c-3.797 0-6.341-2.508-6.341-6.236l.331-23.5094c0-6.4128 0-16.1473 6.49-20.3367 1.34-.9393 2.886-1.4633 4.473-1.5168 1.588-.0536 3.159.3653 4.55 1.2125 1.39.8473 2.548 2.0918 3.352 3.6029.804 1.5111 1.225 3.2331 1.218 4.9853 0 1.8845-.062 4.1893-.16 6.8602-.006.2683-.061.5325-.162.7769-.1.2445-.244.4642-.423.6463-.179.182-.389.3226-.617.4135-.229.0909-.473.1302-.715.1156-.243-.0122-.48-.0769-.7-.1905-.219-.1137-.416-.2739-.579-.4716-.164-.1977-.29-.429-.372-.6807-.082-.2516-.118-.5186-.107-.7858.086-2.5624.148-4.8808.148-6.6839.008-1.039-.242-2.0606-.723-2.9542-.48-.8936-1.173-1.6251-2.004-2.1152-.83-.4902-1.767-.7204-2.707-.6656-.941.0547-1.85.3923-2.629.9762-4.289 2.7115-4.645 9.4904-4.645 16.7845l-.332 23.5365c0 1.762 1.438 2.142 2.654 2.142 2.006-.053 3.914-.963 5.322-2.539 1.408-1.577 2.206-3.695 2.225-5.908l-.136-9.287c0-.539.195-1.056.54-1.438.346-.381.815-.595 1.304-.595.489 0 .958.214 1.303.595.346.382.54.899.54 1.438l.136 9.301c.009 3.302-1.167 6.475-3.272 8.822-2.106 2.348-4.968 3.68-7.962 3.705Z" fill="#BA68C8"/><path d="m347.045 271.425-128.224 81.672c-.66.474-1.21 1.112-1.605 1.863-.395.752-.624 1.595-.668 2.462v.99c.043.869.272 1.715.667 2.469.395.754.945 1.394 1.606 1.87l106.986 68.141c.703.394 1.48.6 2.268.6.788 0 1.565-.206 2.267-.6l128.224-81.672c.66-.474 1.21-1.112 1.605-1.863.395-.751.624-1.595.669-2.462v-1.003c-.045-.868-.274-1.711-.669-2.462-.395-.752-.945-1.39-1.605-1.863L351.58 271.425c-.703-.394-1.48-.599-2.268-.599-.788 0-1.565.205-2.267.599Z" fill="#455A64"/><path d="M216.548 357.422v.99c.043.869.272 1.715.667 2.469.395.753.945 1.394 1.606 1.869l106.986 68.142c.697.405 1.475.61 2.262.596v-12.69l-106.212-67.626-3.036 1.939c-.658.472-1.207 1.108-1.602 1.857-.395.748-.625 1.589-.671 2.454Z" fill="#263238"/><path d="m218.821 353.097 128.224-81.672c.702-.394 1.479-.6 2.267-.6.788 0 1.565.206 2.268.6l106.986 68.141c.276.099.517.293.688.552.17.259.262.572.262.892 0 .321-.092.633-.262.892-.171.26-.412.453-.688.552l-128.224 81.672c-.702.394-1.479.6-2.267.6-.788 0-1.565-.206-2.268-.6l-106.986-68.141c-.276-.1-.517-.293-.687-.552-.171-.259-.263-.572-.263-.892 0-.321.092-.633.263-.892.17-.26.411-.453.687-.552Z" fill="#37474F"/><path d="m234.737 355.985 83.094 52.875c.699.399 1.474.608 2.261.608.787 0 1.563-.209 2.262-.608l112.307-71.517c.277-.099.517-.293.688-.552.171-.259.263-.572.263-.892 0-.321-.092-.633-.263-.892-.171-.26-.411-.453-.688-.552l-83.093-52.875c-.705-.388-1.481-.59-2.268-.59-.787 0-1.563.202-2.268.59l-112.295 71.517c-.276.099-.517.292-.688.552-.17.259-.262.571-.262.892 0 .32.092.633.262.892.171.259.412.452.688.552Z" fill="#fff"/><path d="M260.362 344.799c5.863-3.728 15.375-3.728 21.238 0 5.862 3.729 5.874 9.789 0 13.558-5.875 3.769-15.375 3.729-21.238 0-5.862-3.728-5.862-9.816 0-13.558ZM434.674 334.496l-24.286-15.47-73.741-7.579c-.897-.091-1.8.072-2.623.476-.823.404-1.538 1.034-2.077 1.83-.539.796-.884 1.731-1.001 2.716-.118.985-.004 1.987.33 2.91l12.733 35.155-40.558-2.549c-.79-.052-1.582.094-2.314.428-.732.333-1.387.845-1.914 1.498-.528.652-.914 1.427-1.131 2.268-.217.84-.259 1.724-.122 2.585l6.243 41.473 13.667 8.705c.699.399 1.474.607 2.261.607.788 0 1.563-.208 2.262-.607l112.308-71.518c.289-.092.544-.287.723-.555.18-.267.275-.592.27-.925-.004-.332-.107-.654-.293-.916s-.445-.449-.737-.532Z" fill="#02897A"/><path d="M434.281 236.162v-54.123l63.724-40.578v54.109l-63.724 40.592Z" fill="#EBEBEB"/><path d="m434.281 182.039-79.665-50.733v54.122l79.665 50.734v-54.123Z" fill="#E6E6E6"/><path d="m434.281 182.039 65.617-41.799-81.558-51.9531-65.605 41.8121 81.546 51.94Z" fill="#F0F0F0"/><path d="M434.281 182.039v13.53l65.617-41.785V140.24l-65.617 41.799Z" fill="#EBEBEB"/><path d="m434.281 195.569 63.724-40.578v2.969l-63.724 40.592v-2.983Z" fill="#E6E6E6"/><path d="m352.735 130.099 81.546 51.94v13.53l-81.546-51.939v-13.531Z" fill="#EBEBEB"/><path d="m434.281 195.57-79.665-50.733v2.982l79.665 50.734v-2.983Z" fill="#E0E0E0" style="mix-blend-mode:multiply" opacity=".5"/><path d="m455.26 190.268 21.766-13.869c.934-.597 1.696-.109 1.696 1.084v14.195c-.031.652-.201 1.286-.495 1.851-.295.565-.706 1.046-1.201 1.403l-21.766 13.883c-.946.597-1.696.122-1.696-1.071v-14.235c.027-.651.195-1.285.49-1.848.295-.564.709-1.042 1.206-1.393Z" fill="#E0E0E0"/><path d="m456.649 191.882 18.976-12.093c.627-.394 1.143-.068 1.143.718v10.684c-.018.436-.132.861-.331 1.239-.199.378-.477.697-.812.93l-18.976 12.094c-.627.393-1.131 0-1.131-.733v-10.683c.019-.433.131-.855.328-1.23.196-.375.472-.692.803-.926Z" fill="#fff"/><path d="M434.281 175.246v-54.122l63.724-40.5923v54.1223l-63.724 40.592Z" fill="#EBEBEB"/><path d="m434.281 121.124-79.665-50.7331v54.1231l79.665 50.733v-54.123Z" fill="#E6E6E6"/><path d="m434.281 121.124 65.617-41.8125-81.558-51.9399-65.605 41.7987 81.546 51.9537Z" fill="#F5F5F5"/><path d="M434.281 121.124v13.531l65.617-41.7852V79.312l-65.617 41.812Z" fill="#EBEBEB"/><path d="m434.281 134.655 63.724-40.5923v2.9828l-63.724 40.5785v-2.969Z" fill="#E6E6E6"/><path d="m352.735 69.1704 81.546 51.9536v13.531l-81.546-51.9403V69.1704Z" fill="#EBEBEB"/><path d="m434.281 134.654-79.665-50.7331v2.9692l79.665 50.7329v-2.969Z" fill="#E0E0E0" style="mix-blend-mode:multiply" opacity=".5"/><path d="m455.26 129.353 21.766-13.869c.934-.597 1.696-.109 1.696 1.084v14.195c-.034.651-.205 1.284-.499 1.849-.295.565-.704 1.046-1.197 1.405l-21.766 13.856c-.946.597-1.696.109-1.696-1.084v-14.195c.027-.651.195-1.284.49-1.848.295-.564.709-1.042 1.206-1.393Z" fill="#E0E0E0"/><path d="m456.649 130.953 18.976-12.08c.627-.393 1.143-.081 1.143.719v10.588c-.024.435-.14.858-.338 1.234-.199.377-.475.697-.805.936l-18.976 12.08c-.627.406-1.131.081-1.131-.719v-10.643c.024-.426.139-.839.336-1.207.196-.367.469-.678.795-.908Z" fill="#fff"/><path d="m494.564 136.837-60.283 38.41-76.224-48.578-1.868 1.22 78.092 49.567 62.164-39.426-1.881-1.193Z" fill="#E0E0E0"/></svg>