<svg width="543" height="501" fill="none" xmlns="http://www.w3.org/2000/svg"><path d="M122.067 460.277c93.478 53.366 245.038 53.366 338.516 0 93.477-53.366 93.491-139.916 0-193.282-93.491-53.366-245.038-53.38-338.516 0-93.4776 53.38-93.4776 139.902 0 193.282Z" fill="#EBEBEB"/><path d="m488.078 327.866-13.636-8.48s-3.342-31.248-1.123-55.443c3.132-34.018 23.664-74.905 48.146-65.323 24.483 9.582-11.243 44.307-19.171 73.138-7.927 28.831-14.216 56.108-14.216 56.108Z" fill="#02897A"/><path opacity=".1" d="m488.078 327.866-13.636-8.48s-3.342-31.248-1.123-55.443c3.132-34.018 23.664-74.905 48.146-65.323 24.483 9.582-11.243 44.307-19.171 73.138-7.927 28.831-14.216 56.108-14.216 56.108Z" fill="#000"/><path d="M480.982 324.036c-.127.001-.251-.046-.348-.135-.097-.088-.161-.211-.18-.346-4.638-38.159 8.059-95.835 33.692-117.713.052-.045.113-.079.178-.1.066-.02.134-.027.201-.019.068.008.133.03.193.065.059.035.112.082.154.139.087.117.128.265.113.413-.015.148-.084.284-.192.379-25.355 21.651-37.893 78.875-33.295 116.681.019.148-.018.298-.102.417-.084.119-.209.198-.348.219h-.066Z" fill="#fff"/><path d="m495.358 333.901-9.698-6.007s-1.652-21.439 8.178-47.486c8.549-22.613 29.781-41.495 40.457-37.537 10.675 3.957 10.411 12.055 5.205 20.549-5.205 8.494-36.876 28.746-44.142 70.481Z" fill="#02897A"/><path d="M489.346 334.452c-.069-.004-.136-.022-.199-.054-.062-.032-.117-.077-.163-.132-.045-.056-.08-.12-.102-.19-.022-.07-.03-.144-.025-.218 3.197-53.365 28.433-79.61 43.601-83.61.137-.035.28-.011.401.065.121.077.209.2.246.345.032.144.01.296-.061.423-.072.127-.187.219-.322.255-15.974 4.24-39.809 32.647-42.795 82.593-.005.076-.024.149-.056.217s-.077.128-.131.176c-.054.049-.117.086-.185.108-.067.022-.139.03-.209.022Z" fill="#fff"/><path d="M95.3517 332.021s1.8101-31.333-15.2075-52.815c-17.0176-21.482-39.1748-21.397-46.5077-17.397-7.3329 3.999-12.2611 15.433.3567 23.616 12.6179 8.183 39.4523 24.563 43.9181 39.176l17.4404 7.42Z" fill="#02897A"/><path opacity=".1" d="M95.3517 332.021s1.8101-31.333-15.2075-52.815c-17.0176-21.482-39.1748-21.397-46.5077-17.397-7.3329 3.999-12.2611 15.433.3567 23.616 12.6179 8.183 39.4523 24.563 43.9181 39.176l17.4404 7.42Z" fill="#000"/><path d="M87.3448 324.178c-.1635-.003-.3207-.068-.4422-.185-.1216-.117-.1992-.278-.2184-.451-3.5013-34.668-35.8982-53.875-48.8067-56.051-.0867-.014-.1701-.046-.2452-.095-.0752-.048-.1408-.112-.1929-.187-.0521-.076-.0899-.162-.111-.253-.0212-.091-.0254-.185-.0124-.278.013-.093.043-.182.0882-.262.0452-.081.1048-.151.1754-.207.0705-.056.1506-.096.2358-.119.0851-.022.1735-.027.2603-.013 13.2124 2.219 46.336 21.864 49.9297 57.309.0091.093.001.187-.024.276-.0251.09-.0664.173-.1217.246-.0553.072-.1234.132-.2004.176-.0771.044-.1615.071-.2484.08l-.0661.014Z" fill="#fff"/><path d="M81.0426 316.22c-4.2676-10.401-9.0901-15.065-22.9632-12.578-13.873 2.488-11.8911 2.106-28.8691-2.544-7.1611-1.95-15.2075-2.261-22.07794 1.046-5.80025 2.827-10.13392 8.48-4.51865 14.5 6.31554 6.728 15.73599 9.031 22.71219 14.953 1.5825 1.197 2.8407 2.821 3.6466 4.706 1.8365 5.003-1.8365 10.642-.7663 15.886 1.0702 5.243 6.223 8.041 11.0588 8.381 4.8357.339 9.6054-1.216 14.4279-1.809 4.8225-.594 10.2396 0 13.5692 3.83 3.5673 4.056 3.6598 10.543 6.9761 14.853 4.9679 6.459 17.1762 8.254 23.7824 4.24l17.2954-10.67c11.428-16.479-6.607-29.538-16.0535-42.328-4.5847-6.233-15.6567-6.205-18.2199-12.466Z" fill="#02897A"/><path d="M104.6 361.065c-.112.002-.223-.028-.321-.088s-.179-.147-.234-.252c-19.7258-34.187-73.4343-51.486-92.4337-52.899-.173-.015-.3337-.101-.4474-.242-.1137-.14-.1713-.322-.1604-.507.0135-.186.0941-.36.2247-.484.1307-.124.3011-.188.4756-.18 19.2505 1.413 73.4742 18.966 93.4642 53.606.089.162.115.354.073.536-.042.182-.149.339-.297.439-.108.051-.226.075-.344.071Z" fill="#fff"/><path d="M42.1189 344.953c-.103.002-.2049-.022-.2969-.072-.0921-.049-.1716-.121-.2316-.211-.1052-.15-.1503-.338-.1255-.524.0248-.185.1174-.353.2576-.465.6871-.551 17.0704-13.412 33.0311-13.667.0861-.002.1717.015.2518.049.08.034.153.085.2145.149.0615.065.1104.142.1437.226.0334.085.0506.177.0506.269.0017.093-.0136.185-.0452.271-.0316.087-.0788.166-.1389.233-.0602.067-.132.12-.2115.157-.0795.038-.1651.058-.2518.06-15.4982.24-32.0534 13.256-32.2251 13.383-.1193.103-.2703.153-.4228.142Z" fill="#fff"/><path d="M103.372 373.077c.141 2.055.732 4.046 1.726 5.811.994 1.766 2.362 3.256 3.995 4.351l160.306 99.001c1.773.962 3.733 1.463 5.721 1.463s3.948-.501 5.721-1.463l219.326-135.464c1.729-.976 3.176-2.438 4.185-4.229 1.009-1.791 1.543-3.842 1.543-5.933 0-2.091-.534-4.142-1.543-5.933-1.009-1.79-2.456-3.252-4.185-4.228l-160.293-98.931c-1.773-.962-3.733-1.463-5.721-1.463s-3.948.501-5.721 1.463L109.093 362.944c-1.629 1.092-2.995 2.578-3.989 4.338-.994 1.76-1.587 3.745-1.732 5.795Z" fill="#37474F"/><path d="m169.513 325.604-60.42 37.339c-1.729.976-3.176 2.438-4.185 4.229-1.01 1.791-1.543 3.842-1.543 5.933 0 2.091.533 4.142 1.543 5.933 1.009 1.79 2.456 3.253 4.185 4.229l160.306 99.001c1.763.985 3.733 1.471 5.721 1.413V325.604H169.513Z" fill="#263238"/><path d="M97.9941 363.142c-1.5923-1.161-2.9073-2.706-3.8391-4.511-.9317-1.804-1.4542-3.817-1.5251-5.877V148.123c.1064-2.123.6799-4.19 1.6741-6.032.9941-1.842 2.3806-3.407 4.0469-4.567L317.677 2.05978C319.333.948995 321.24.341727 323.194.303222c1.954-.038505 3.88.493202 5.573 1.537998 1.693 1.0448 3.087 2.56321 4.034 4.39205.946 1.82885 1.409 3.89903 1.339 5.98803V216.866c-.109 2.123-.683 4.189-1.677 6.031-.994 1.841-2.38 3.406-4.044 4.569L109.093 362.944c-1.706.962-3.6 1.481-5.528 1.516-1.928.034-3.8362-.418-5.5709-1.318Z" fill="#455A64"/><path d="m119.478 157.635-25.1701-15.546c-1.0023 1.834-1.5525 3.91-1.5987 6.034v204.631c.071 2.06.5934 4.073 1.5252 5.877.9317 1.805 2.2468 3.35 3.8391 4.511 1.735.894 3.6425 1.339 5.5675 1.3 1.926-.039 3.816-.562 5.518-1.527l25.024-15.447-14.705-189.833Z" fill="#263238"/><path d="M103.372 154.766v204.616c0 3.901 2.563 5.484 5.721 3.533l219.326-135.45c1.665-1.162 3.05-2.727 4.044-4.569.994-1.841 1.568-3.907 1.677-6.03V12.2352c0-3.9007-2.563-5.48359-5.721-3.53325L109.093 144.166c-1.667 1.16-3.053 2.725-4.047 4.567-.994 1.842-1.568 3.909-1.674 6.033Z" fill="#37474F"/><path d="m109.093 370.01 160.306 98.93c1.773.962 3.733 1.464 5.721 1.464s3.948-.502 5.721-1.464l219.326-135.464c3.171-1.95 3.171-5.116 0-7.066l-160.293-98.931c-1.773-.962-3.733-1.463-5.721-1.463s-3.948.501-5.721 1.463L109.093 362.943c-3.171 1.922-3.171 5.088 0 7.067Z" fill="#455A64"/><path d="M112.171 155.515 325.354 23.8668c1.889-1.173 3.435-.2261 3.435 2.1199V203.115c-.067 1.273-.412 2.513-1.009 3.617-.597 1.105-1.428 2.044-2.426 2.742L112.171 341.122c-1.902 1.173-3.435.227-3.435-2.12V161.875c.063-1.275.408-2.516 1.005-3.621s1.43-2.044 2.43-2.739Z" fill="#fff"/><path d="m127.696 364.682 203.59-125.783c.886-.481 1.866-.731 2.86-.731.994 0 1.974.25 2.861.731l10.424 6.43c.346.126.645.363.858.68.212.317.326.697.326 1.087s-.114.77-.326 1.087c-.213.317-.512.554-.858.68L143.802 374.631c-.887.481-1.867.731-2.861.731-.994 0-1.974-.25-2.86-.731l-10.385-6.416c-.345-.125-.645-.363-.857-.68-.213-.317-.327-.697-.327-1.087 0-.389.114-.769.327-1.086.212-.317.512-.555.857-.68ZM154.543 381.316 358.12 255.533c.889-.481 1.871-.731 2.867-.731s1.978.25 2.867.731l64.041 39.572c.345.126.645.363.857.68.212.317.327.697.327 1.087s-.115.77-.327 1.087c-.212.316-.512.554-.857.679L224.543 424.167c-.889.481-1.871.731-2.867.731s-1.979-.25-2.868-.731l-64.265-39.388c-.328-.134-.611-.371-.811-.68-.199-.309-.306-.676-.306-1.052 0-.375.107-.742.306-1.052.2-.309.483-.546.811-.679Z" fill="#263238"/><path d="m337.033 312.065 6.382-3.943c.264-.17.251-.438 0-.622l-7.373-4.551c-.157-.086-.331-.132-.508-.132s-.352.046-.509.132l-6.369 3.943c-.277.17-.264.439 0 .622l7.373 4.551c.156.085.328.129.502.129.175 0 .347-.044.502-.129Zm-12.578-15.546-6.368 3.943c-.278.155-.265.438 0 .622l7.372 4.551c.157.086.332.132.509.132s.351-.046.508-.132l6.382-3.943c.264-.17.251-.453 0-.622l-7.386-4.551c-.157-.087-.331-.132-.508-.132s-.352.045-.509.132Zm-20.585 12.72-10.795 6.656c-.264.17-.251.452 0 .636l7.373 4.551c.157.087.332.132.509.132s.351-.045.508-.132l10.782-6.657c.277-.169.251-.452 0-.622l-7.373-4.564c-.155-.087-.327-.132-.502-.132s-.347.045-.502.132Zm11.27-6.968-6.368 3.943c-.278.17-.264.452 0 .622l7.372 4.551c.158.086.332.132.509.132s.351-.046.509-.132l6.381-3.943c.265-.17.251-.438 0-.622l-7.385-4.65c-.158-.087-.332-.132-.509-.132s-.352.045-.509.132v.099Zm-25.011 15.447-6.368 3.929c-.278.17-.251.452 0 .636l7.372 4.551c.156.083.328.127.502.127.175 0 .346-.044.502-.127l6.382-3.943c.264-.17.251-.452 0-.622l-7.373-4.551c-.157-.087-.331-.132-.508-.132s-.352.045-.509.132Zm-9.249 5.752-6.368 3.943c-.277.156-.251.439 0 .622l7.373 4.551c.157.087.331.132.508.132s.352-.045.509-.132l6.381-3.943c.265-.17.252-.452 0-.622l-7.451-4.65c-.158-.086-.332-.132-.509-.132s-.351.046-.509.132l.066.099Zm29.002 18.514 6.368-3.943c.277-.169.251-.438 0-.621l-7.373-4.551c-.154-.087-.327-.132-.502-.132-.174 0-.347.045-.502.132l-6.381 3.943c-.265.169-.251.438 0 .622l7.372 4.55c.154.065.319.092.483.08.165-.012.325-.064.469-.15l.066.07Zm-9.328 5.753 6.381-3.943c.265-.156.251-.439 0-.622l-7.372-4.551c-.158-.087-.332-.132-.509-.132s-.351.045-.509.132l-6.368 3.943c-.277.169-.251.452 0 .622l7.372 4.551c.152.064.315.091.477.079.163-.012.32-.064.462-.15l.066.071Zm-9.315 5.752 6.381-3.929c.265-.17.252-.453 0-.636l-7.372-4.551c-.158-.084-.332-.127-.509-.127-.176 0-.35.043-.508.127l-6.369 3.943c-.277.17-.251.452 0 .622l7.36 4.551c.153.064.318.091.483.079.164-.012.324-.063.468-.15l.066.071Zm-9.249 5.752 6.382-3.929c.264-.17.251-.452 0-.636l-7.373-4.551c-.157-.087-.331-.132-.508-.132s-.352.045-.509.132l-6.368 3.929c-.278.17-.265.452 0 .636l7.372 4.551c.288.1.601.075.872-.071l.132.071Zm45.861-41.325 6.381-3.943c.264-.155.251-.438 0-.622l-7.372-4.551c-.159-.083-.333-.127-.509-.127-.177 0-.351.044-.509.127l-6.368 3.943c-.278.17-.264.453 0 .622l7.372 4.551c.143.052.293.073.443.061.15-.013.296-.057.429-.132l.133.071Zm-8.589 18.373 14.217-8.791c.264-.155.251-.438 0-.622l-17.903-11.052c-.157-.086-.332-.132-.508-.132-.177 0-.352.046-.509.132l-7.346 4.551c-.278.156-.251.438 0 .622l9.486 5.851c.291.184.304.467 0 .636l-5.985 3.477c-.264.155-.251.438 0 .622l7.399 4.508c.152.098.324.155.501.168.177.012.354-.021.516-.097l.132.127Zm-47.63-7.067-6.369 3.944c-.277.169-.264.438 0 .621l7.373 4.551c.157.087.332.132.509.132.176 0 .351-.045.508-.132l6.382-3.943c.264-.17.251-.438 0-.622l-7.373-4.551c-.168-.125-.366-.199-.572-.211-.205-.013-.41.036-.59.141l.132.07Zm-9.249 5.753-6.58 3.943c-.264.169-.251.452 0 .621l7.373 4.551c.157.087.331.132.508.132s.352-.045.509-.132l6.382-3.943c.264-.155.251-.438 0-.622l-7.426-4.593c-.148-.082-.312-.127-.479-.132-.167-.005-.333.031-.485.104l.198.071Zm-46.798 64.446c.157.086.331.132.508.132s.352-.046.509-.132l6.382-3.943c.264-.156.251-.439 0-.622l-7.399-4.523c-.158-.087-.332-.132-.509-.132s-.351.045-.509.132l-6.368 3.943c-.278.17-.264.452 0 .622l7.386 4.523Zm-27.971-18.486-6.382 3.943c-.264.169-.251.438 0 .622l7.373 4.55c.157.087.332.133.509.133s.351-.046.508-.133l6.382-3.943c.264-.169.251-.438 0-.621l-7.373-4.551c-.152-.08-.319-.122-.489-.122-.169 0-.336.042-.488.122h-.04Zm14.996 13.497c.157.086.332.132.509.132s.351-.046.508-.132l6.369-3.943c.277-.156.251-.439 0-.622l-7.36-4.551c-.157-.087-.331-.132-.508-.132s-.352.045-.509.132l-6.381 3.943c-.265.17-.252.452 0 .622l7.372 4.551Zm29.424 8.479 6.382-3.943c.264-.169.251-.438 0-.621l-7.373-4.551c-.157-.087-.332-.132-.509-.132s-.351.045-.508.132l-6.369 3.943c-.277.155-.251.438 0 .622l7.36 4.55c.161.097.342.148.527.151.184.002.366-.045.53-.136l-.04-.015Zm-10.332 5.654c.157.086.332.132.509.132s.351-.046.508-.132l6.382-3.943c.264-.156.251-.439 0-.622l-7.373-4.551c-.157-.087-.331-.132-.508-.132s-.352.045-.509.132l-6.368 3.943c-.278.17-.265.452 0 .622l7.359 4.551Zm-24.773-33.467-6.369 3.943c-.277.155-.264.438 0 .622l7.373 4.551c.157.086.332.132.509.132.176 0 .351-.046.508-.132l6.382-3.943c.264-.17.251-.453 0-.622l-7.373-4.551c-.16-.069-.333-.098-.505-.083s-.338.072-.486.168l-.039-.085Zm46.587-28.761-6.382 3.929c-.264.17-.251.453 0 .622l7.373 4.565c.158.084.332.127.508.127.177 0 .351-.043.509-.127l6.368-3.929c.278-.169.265-.452 0-.636l-7.372-4.551c-.157-.064-.324-.09-.492-.076-.167.015-.328.07-.473.161l-.039-.085Zm-37.18 23.094-6.368 3.929c-.278.169-.265.452 0 .636l7.372 4.55c.158.084.332.127.509.127.176 0 .35-.043.508-.127l6.382-3.943c.264-.169.251-.452 0-.622l-7.373-4.565c-.16-.083-.337-.125-.516-.123-.179.002-.355.05-.514.138Zm46.587-28.775-6.435 3.915c-.264.169-.251.452 0 .622l7.373 4.55c.157.087.332.132.509.132s.351-.045.508-.132l6.369-3.929c.277-.169.264-.452 0-.636l-7.346-4.494c-.158-.09-.334-.14-.513-.144-.178-.005-.356.035-.518.116h.053Zm-18.63 11.518-6.381 3.929c-.264.17-.251.452 0 .636l7.372 4.551c.159.084.333.127.509.127s.35-.043.509-.127l6.368-3.929c.278-.17.251-.452 0-.636l-7.359-4.551c-.165-.093-.349-.141-.535-.141-.187 0-.37.048-.535.141h.052Zm-9.328 5.752-6.368 3.929c-.277.17-.251.453 0 .636l7.373 4.551c.158.084.332.127.508.127.177 0 .351-.043.509-.127l6.368-3.929c.265-.169.251-.452 0-.636l-7.372-4.551c-.165-.092-.349-.141-.535-.141-.187 0-.37.049-.535.141h.052Zm-9.38 5.752-6.369 3.929c-.277.17-.251.453 0 .636l7.36 4.551c.157.087.331.132.508.132s.352-.045.509-.132l6.382-3.929c.264-.169.251-.452 0-.636l-7.373-4.551c-.158-.083-.332-.126-.509-.126-.176 0-.35.043-.508.126Zm47.63 7.067 6.369-3.929c.277-.17.264-.452 0-.636l-7.386-4.65c-.158-.083-.332-.127-.509-.127-.176 0-.35.044-.508.127l-6.382 3.929c-.264.17-.251.453 0 .636l7.373 4.551c.16.098.34.153.525.157.184.005.367-.039.532-.129l-.014.071Zm81.851-86.946-6.381 3.943c-.265.17-.251.438 0 .622l7.372 4.551c.158.087.332.132.509.132s.351-.045.509-.132l6.368-3.943c.277-.17.264-.438 0-.622l-7.373-4.551c-.155-.084-.327-.128-.502-.128-.174 0-.346.044-.502.128Zm-11.283 6.968-6.368 3.943c-.278.155-.252.438 0 .622l7.359 4.551c.158.083.332.126.509.126.176 0 .35-.043.508-.126l6.382-3.944c.264-.169.251-.452 0-.621l-7.373-4.551c-.153-.1-.327-.159-.507-.172-.179-.012-.359.023-.523.101l.013.071Zm20.598-12.72-6.368 3.943c-.278.156-.265.438 0 .622l7.372 4.551c.157.087.332.132.509.132s.351-.045.509-.132l6.381-3.943c.264-.17.251-.452 0-.622l-7.372-4.551c-.162-.112-.348-.178-.54-.19-.192-.013-.384.028-.557.12l.066.07Zm-48.225 53.196 6.381-3.943c.265-.169.251-.452 0-.621l-7.372-4.551c-.158-.087-.332-.132-.509-.132s-.351.045-.509.132l-6.368 3.943c-.277.155-.264.438 0 .622l7.373 4.55c.159.072.331.103.503.09.172-.012.339-.067.488-.16l.013.07Zm58.557-58.92c-.157-.086-.332-.132-.509-.132s-.351.046-.508.132l-6.369 3.943c-.277.156-.264.439 0 .622l7.373 4.551c.158.084.332.127.509.127.176 0 .35-.043.508-.127l6.382-3.943c.264-.17.251-.452 0-.622l-7.386-4.551Zm-92.17 92.599 6.382-3.929c.264-.169.251-.452 0-.636l-7.412-4.48c-.158-.087-.332-.132-.509-.132s-.351.045-.509.132l-6.368 3.929c-.277.17-.264.452 0 .636l7.373 4.551c.166.077.348.111.529.099.182-.012.358-.071.514-.17Zm114.248-70.551 6.382-3.943c.264-.156.251-.439 0-.622l-7.412-4.593c-.158-.087-.332-.132-.509-.132s-.352.045-.509.132l-6.368 3.943c-.278.169-.264.452 0 .622l7.372 4.55c.158.098.335.154.517.161.182.007.363-.033.527-.118Zm-19.819-.749 6.382-3.943c.264-.17.251-.439 0-.622l-7.372-4.551c-.158-.087-.332-.132-.509-.132s-.352.045-.509.132l-6.368 3.943c-.278.17-.264.438 0 .622l7.372 4.551c.147.091.312.144.481.157.17.012.34-.018.497-.087l.026-.07Zm8.285-14.868c-.158-.087-.332-.132-.509-.132s-.351.045-.509.132l-6.368 3.943c-.278.155-.264.438 0 .622l7.372 4.551c.158.086.332.132.509.132s.352-.046.509-.132l6.381-3.944c.265-.169.251-.452 0-.621l-7.385-4.551Zm1.968-1.216 17.89 11.052c.157.087.332.132.509.132s.351-.045.508-.132l6.382-3.943c.264-.169.251-.438 0-.622l-17.903-11.052c-.157-.086-.332-.132-.509-.132s-.351.046-.508.132l-6.369 3.944c-.343.155-.317.438-.026.621h.026Zm-21.615 12.72-6.382 3.943c-.264.17-.251.452 0 .622l7.373 4.551c.157.086.331.132.508.132s.352-.046.509-.132l6.368-3.943c.278-.156.265-.438 0-.622l-7.372-4.551c-.15-.084-.316-.131-.486-.136-.169-.004-.338.032-.492.108l-.026.028Zm-70.118 43.303-6.409 3.943c-.264.17-.251.453 0 .622l7.373 4.551c.157.087.332.132.509.132s.351-.045.508-.132l6.369-3.943c.277-.156.264-.438 0-.622l-7.373-4.551c-.153-.089-.324-.137-.499-.142-.174-.005-.347.034-.505.114l.027.028Zm90.993-33.438c.158.087.332.132.509.132s.351-.045.509-.132l6.381-3.943c.265-.156.251-.438 0-.622l-7.372-4.551c-.158-.083-.332-.127-.509-.127-.176 0-.35.044-.509.127l-6.368 3.943c-.277.17-.264.452 0 .622l7.359 4.551Zm-81.679 27.686-6.368 3.943c-.278.17-.264.438 0 .622l7.372 4.551c.158.087.332.132.509.132s.351-.045.509-.132l6.381-3.943c.265-.17.251-.438 0-.622l-7.372-4.551c-.16-.098-.341-.152-.525-.157-.185-.005-.368.039-.532.129l.026.028Zm-69.841 65.888c.158.087.332.132.509.132s.351-.045.509-.132l6.381-3.943c.265-.17.251-.438 0-.622l-7.372-4.551c-.157-.087-.332-.132-.509-.132s-.351.045-.508.132l-6.369 3.943c-.277.17-.251.438 0 .622l7.359 4.551Zm-14.005-14.133-6.381 3.943c-.265.17-.251.438 0 .622l7.372 4.551c.157.086.332.132.509.132s.351-.046.509-.132l6.368-3.943c.277-.17.264-.439 0-.622l-7.373-4.551c-.159-.089-.335-.136-.515-.136-.179 0-.356.047-.515.136h.026Zm24.351 8.381 6.368-3.943c.264-.17.251-.453 0-.622l-7.372-4.551c-.158-.087-.332-.132-.509-.132s-.351.045-.509.132l-6.434 3.901c-.264.155-.251.438 0 .622l7.372 4.55c.159.101.339.157.524.165.184.007.368-.035.533-.122h.027Zm9.315-5.752 6.368-3.943c.277-.17.251-.453 0-.622l-7.359-4.551c-.158-.087-.332-.132-.509-.132s-.351.045-.509.132l-6.381 3.929c-.265.169-.251.452 0 .636l7.372 4.551c.162.088.341.134.522.134s.36-.046.522-.134h-.026Zm9.248-5.767 6.369-3.929c.277-.169.264-.452 0-.621l-7.373-4.565c-.158-.084-.332-.127-.509-.127-.176 0-.35.043-.508.127l-6.382 3.929c-.264.169-.251.452 0 .636l7.373 4.55c.162.094.344.144.528.144.185 0 .366-.05.529-.144h-.027Zm-33.665-2.614-6.382 3.943c-.264.155-.251.438 0 .622l7.373 4.551c.157.086.332.132.509.132s.351-.046.508-.132l6.382-3.944c.264-.169.251-.452 0-.621l-7.373-4.551c-.152-.08-.319-.122-.489-.122-.169 0-.336.042-.488.122h-.04Zm9.315-5.752-6.369 3.929c-.277.169-.264.452 0 .636l7.373 4.55c.158.084.332.127.509.127.176 0 .35-.043.508-.127l6.501-3.914c.264-.17.251-.453 0-.622l-7.373-4.551c-.166-.109-.356-.168-.551-.173-.195-.005-.388.045-.559.145h-.039Zm37.272-23.009-6.289 3.929c-.264.17-.251.453 0 .636l7.372 4.551c.159.084.333.127.509.127s.351-.043.509-.127l6.368-3.929c.278-.169.251-.452 0-.636l-7.359-4.551c-.164-.096-.348-.147-.535-.147-.187 0-.372.051-.535.147h-.04Zm-9.328 5.752-6.368 3.929c-.265.17-.251.453 0 .636l7.372 4.551c.158.084.332.127.509.127.176 0 .35-.043.508-.127l6.369-3.929c.277-.169.251-.452 0-.636l-7.373-4.551c-.153-.076-.32-.116-.489-.116-.169 0-.335.04-.488.116h-.04Zm18.643-11.518-6.355 3.943c-.265.17-.252.452 0 .622l7.372 4.565c.158.083.332.127.509.127.176 0 .35-.044.508-.127l6.369-3.943c.277-.156.264-.438 0-.622l-7.373-4.551c-.153-.081-.322-.125-.494-.127-.171-.002-.341.036-.497.113h-.039Zm-37.273 23.023-6.368 3.929c-.277.169-.264.452 0 .636l7.373 4.55c.158.084.332.127.508.127.177 0 .351-.043.509-.127l6.382-3.943c.264-.169.251-.452 0-.622l-7.373-4.565c-.156-.076-.325-.115-.497-.113-.171.003-.34.046-.494.128h-.04Zm9.315-5.752-6.368 3.928c-.278.17-.251.453 0 .636l7.372 4.551c.155.087.328.132.502.132.175 0 .348-.045.503-.132l6.381-3.929c.264-.169.251-.452 0-.636l-7.372-4.55c-.153-.077-.32-.117-.489-.117-.169 0-.336.04-.489.117h-.04Zm-6.791 40.617 6.368-3.943c.265-.169.251-.452 0-.621l-7.372-4.551c-.157-.087-.332-.132-.509-.132s-.351.045-.508.132l-6.369 3.943c-.277.155-.251.438 0 .622l7.373 4.55c.162.095.344.144.528.144.185 0 .366-.049.529-.144h-.04Zm-54.633-5.964-7.373-4.55c-.157-.087-.332-.132-.508-.132-.177 0-.352.045-.509.132l-6.355 3.971c-.265.17-.251.438 0 .622l7.372 4.551c.157.086.332.132.509.132s.351-.046.509-.132l6.368-3.943c.291-.128.277-.41-.013-.651Zm13.952 4.382-7.373-4.551c-.155-.084-.327-.127-.502-.127-.174 0-.346.043-.502.127l-9.75 6.091c-.265.17-.251.452 0 .622l7.372 4.551c.157.087.332.132.509.132s.351-.045.508-.132l9.804-6.049c.304-.141.225-.424-.066-.608v-.056Zm-25.262-13.186-7.399-4.495c-.157-.086-.332-.132-.509-.132s-.351.046-.508.132l-7.822 4.82c-.264.169-.251.452 0 .636l7.372 4.55c.158.087.332.132.509.132s.351-.045.509-.132l7.835-4.833c.317-.155.304-.438.013-.622v-.056Zm6.012-3.717c.157.086.331.132.508.132s.352-.046.509-.132l6.368-3.943c.278-.156.265-.439 0-.622l-7.372-4.551c-.158-.087-.332-.132-.509-.132s-.351.045-.509.132l-6.381 3.943c-.264.17-.251.452 0 .622l7.386 4.551Zm32.238 21.892-7.333-4.495c-.158-.083-.332-.127-.509-.127-.176 0-.35.044-.508.127l-12.262 7.575c-.264.17-.251.453 0 .622l7.373 4.565c.158.084.332.127.509.127.176 0 .35-.043.508-.127l12.261-7.575c.265-.17.251-.452-.039-.636v-.056Zm6.117 9.228-7.372-4.466c-.158-.086-.332-.132-.509-.132s-.351.046-.509.132l-7.848 4.848c-.264.169-.251.452 0 .636l7.373 4.551c.158.083.332.127.508.127.177 0 .351-.044.509-.127l7.848-4.848c.304-.198.291-.48 0-.664v-.057Zm30.917-73.901c.158.087.332.132.509.132s.351-.045.509-.132l6.368-3.929c.277-.169.251-.452 0-.636l-7.373-4.55c-.158-.084-.332-.127-.508-.127-.177 0-.351.043-.509.127l-6.368 3.999c-.265.17-.251.452 0 .622l7.372 4.494Zm-18.642 11.519c.158.083.332.127.508.127.177 0 .351-.044.509-.127l6.381-3.929c.265-.17.252-.453 0-.636l-7.372-4.551c-.158-.084-.332-.127-.509-.127-.176 0-.35.043-.508.127l-6.369 3.929c-.277.169-.251.452 0 .636l7.36 4.551Zm-41.316 25.566c.158.087.332.132.509.132s.351-.045.509-.132l6.368-3.943c.277-.17.264-.438 0-.622l-7.373-4.551c-.157-.086-.331-.132-.508-.132s-.352.046-.509.132l-6.381 3.943c-.265.17-.251.439 0 .622l7.385 4.551Zm50.643-31.248c.156.084.328.127.503.127.174 0 .346-.043.502-.127l6.381-3.929c.264-.169.251-.452 0-.636l-7.372-4.551c-.158-.086-.332-.132-.509-.132s-.351.046-.509.132l-6.368 3.929c-.278.17-.251.453 0 .636l7.372 4.551Zm-18.642 11.504c.157.087.331.132.508.132s.352-.045.509-.132l6.382-3.929c.264-.169.251-.452 0-.636l-7.373-4.55c-.158-.084-.332-.127-.509-.127-.176 0-.35.043-.508.127l-6.369 3.929c-.277.169-.264.452 0 .636l7.36 4.55Zm2.153 57.366c-.158-.084-.332-.127-.508-.127-.177 0-.351.043-.509.127l-9.804 6.035c-.264.169-.251.452 0 .636l7.373 4.55c.157.087.332.132.509.132s.351-.045.508-.132l9.804-6.048c.277-.17.251-.453 0-.636l-7.373-4.537Zm-15.524-49.084c.158.084.332.127.508.127.177 0 .351-.043.509-.127l6.382-3.943c.264-.169.251-.452 0-.622l-7.373-4.55c-.157-.087-.331-.132-.508-.132s-.352.045-.509.132l-6.369 3.943c-.277.155-.264.438 0 .621l7.36 4.551Zm-9.315 5.653c.157.087.332.132.509.132s.351-.045.508-.132l6.382-3.943c.264-.169.251-.452 0-.621l-7.373-4.551c-.157-.087-.331-.132-.508-.132s-.352.045-.509.132l-6.368 3.943c-.278.155-.265.438 0 .622l7.359 4.55Zm197.446-63.174c-.157-.086-.331-.132-.508-.132s-.352.046-.509.132l-15.749 9.667c-.264.17-.251.452 0 .636l7.372 4.551c.159.084.333.127.509.127s.351-.043.509-.127l15.775-9.624c.278-.17.265-.453 0-.636l-7.399-4.594Zm-20.598 12.72c-.157-.087-.331-.132-.508-.132s-.352.045-.509.132l-6.369 3.929c-.277.169-.264.452 0 .636l7.373 4.551c.158.083.332.127.509.127.176 0 .35-.044.508-.127l6.382-3.929c.264-.17.251-.453 0-.636l-7.386-4.551Zm-126.192 74.692 6.369-3.943c.277-.169.251-.452 0-.622l-7.36-4.564c-.158-.084-.332-.127-.508-.127-.177 0-.351.043-.509.127l-6.381 3.928c-.265.17-.251.453 0 .636l7.372 4.551c.157.086.331.132.507.134.177.003.351-.038.51-.12Zm107.563-63.188c-.159-.083-.333-.127-.509-.127s-.35.044-.509.127l-6.381 3.929c-.265.17-.251.452 0 .636l7.372 4.551c.158.087.332.132.509.132s.351-.045.509-.132l6.368-3.929c.277-.17.264-.452 0-.636l-7.359-4.551Zm48.542-29.976c-.158-.083-.332-.127-.509-.127-.176 0-.35.044-.508.127l-6.369 3.915c-.277.17-.264.452 0 .622l7.373 4.565c.158.083.332.127.509.127.176 0 .35-.044.508-.127l6.382-3.929c.264-.17.251-.452 0-.636l-7.386-4.537Zm16.687-1.201-17.902-11.052c-.158-.087-.332-.132-.509-.132s-.352.045-.509.132l-6.368 3.943c-.278.17-.264.452 0 .622l17.903 11.052c.157.087.331.132.508.132s.352-.045.509-.132l6.382-3.943c.29-.156.277-.438-.014-.622Zm-100.044 52.687c-.157-.086-.332-.132-.509-.132s-.351.046-.508.132l-7.849 4.848c-.264.17-.251.452 0 .622l7.373 4.551c.157.086.332.132.509.132s.351-.046.508-.132l7.849-4.848c.264-.17.251-.452 0-.622l-7.373-4.551Zm23.531-14.542c-.157-.087-.331-.132-.508-.132s-.352.045-.509.132l-9.804 6.049c-.264.169-.251.452 0 .621l7.373 4.565c.158.084.332.127.509.127.176 0 .35-.043.508-.127l9.804-6.049c.264-.169.251-.452 0-.636l-7.373-4.55Zm-45.107 27.856c-.158-.084-.332-.127-.509-.127-.176 0-.35.043-.508.127l-52.467 32.392c-.264.17-.251.453 0 .636l7.373 4.551c.158.084.332.127.508.127.177 0 .351-.043.509-.127l52.467-32.407c.264-.169.251-.452 0-.636l-7.373-4.536Zm-55.413 34.23c-.157-.087-.331-.132-.508-.132s-.352.045-.509.132l-7.835 4.847c-.278.17-.264.452 0 .622l7.372 4.551c.158.087.332.132.509.132s.352-.045.509-.132l7.888-4.791c.264-.17.251-.453 0-.622l-7.426-4.607Zm66.194-40.887c-.158-.083-.332-.127-.508-.127-.177 0-.351.044-.509.127l-7.835 4.848c-.277.169-.264.452 0 .636l7.373 4.55c.158.084.332.127.508.127.177 0 .351-.043.509-.127l7.848-4.847c.278-.156.251-.438 0-.622l-7.386-4.565Zm-76.975 47.529c-.158-.083-.332-.127-.509-.127-.176 0-.35.044-.508.127l-7.849 4.848c-.264.169-.251.452 0 .636l7.373 4.55c.158.084.332.127.509.127.176 0 .35-.043.508-.127l7.835-4.833c.278-.17.264-.452 0-.636l-7.359-4.565Zm98.551-60.87c-.158-.084-.332-.127-.508-.127-.177 0-.351.043-.509.127l-7.835 4.833c-.277.17-.264.452 0 .636l7.373 4.551c.158.083.332.127.508.127.177 0 .351-.044.509-.127l7.848-4.848c.278-.169.251-.452 0-.636l-7.386-4.536Zm33.348-20.592c-.157-.087-.331-.132-.508-.132s-.352.045-.509.132l-6.368 3.929c-.278.169-.265.452 0 .636l7.372 4.551c.158.083.332.127.509.127.176 0 .35-.044.509-.127l6.381-3.929c.264-.17.251-.453 0-.636l-7.386-4.551Zm20.414-15.857 6.368-3.929c.277-.17.264-.452 0-.636l-7.373-4.551c-.158-.083-.332-.127-.508-.127-.177 0-.351.044-.509.127l-6.381 3.943c-.265.17-.251.452 0 .622l7.372 4.565c.16.086.336.13.515.13s.356-.044.516-.13v-.014Zm-41.619-.198 6.381-3.943c.264-.17.251-.452 0-.622l-7.372-4.551c-.158-.087-.332-.132-.509-.132s-.351.045-.509.132l-6.368 3.943c-.278.17-.251.438 0 .622l7.359 4.551c.157.087.332.132.509.132s.351-.045.509-.132Zm-21.14 39.049 18.629-11.504c.264-.17.251-.452 0-.636l-7.372-4.551c-.159-.083-.333-.127-.509-.127s-.351.044-.509.127l-18.629 11.519c-.264.155-.251.438 0 .621l7.372 4.551c.163.076.34.109.517.097.177-.012.349-.07.501-.168v.071Zm52.427-33.028c.158.083.332.126.508.126.177 0 .351-.043.509-.126l6.368-3.929c.278-.17.265-.453 0-.636l-7.372-4.551c-.158-.087-.332-.132-.509-.132s-.351.045-.509.132l-6.381 3.929c-.264.169-.251.452 0 .636l7.386 4.551Zm-9.513-6.487 6.368-3.929c.277-.17.264-.453 0-.636l-7.373-4.551c-.158-.084-.332-.127-.508-.127-.177 0-.351.043-.509.127l-6.382 3.943c-.264.17-.251.452 0 .622l7.373 4.565c.166.073.346.103.525.088.179-.015.352-.074.506-.173v.071Zm-52.229 45.225 6.368-3.943c.278-.17.251-.438 0-.622l-7.372-4.551c-.158-.087-.332-.132-.509-.132s-.351.045-.509.132l-6.408 3.929c-.277.17-.251.438 0 .622l7.373 4.551c.171.104.366.158.563.156.198-.003.391-.061.56-.17l-.066.028Zm41.143-26.061c.159.083.333.127.509.127s.351-.044.509-.127l6.381-3.929c.265-.17.251-.452 0-.636l-7.372-4.551c-.158-.083-.332-.127-.509-.127-.176 0-.35.044-.509.127l-6.368 3.943c-.277.17-.264.452 0 .622l7.359 4.551Zm-87.73 54.793 6.368-3.929c.278-.169.265-.452 0-.636l-7.372-4.551c-.158-.083-.332-.127-.509-.127-.176 0-.35.044-.509.127l-6.381 3.929c-.264.17-.251.453 0 .636l7.372 4.551c.16.086.337.131.516.131s.355-.045.515-.131Zm9.315-5.752 6.381-3.929c.265-.17.251-.452 0-.636l-7.359-4.551c-.157-.086-.332-.132-.509-.132s-.351.046-.508.132l-6.382 3.929c-.264.17-.251.452 0 .636l7.373 4.551c.156.081.328.123.502.123s.345-.042.502-.123Zm-18.63 11.504 6.369-3.929c.277-.169.264-.452 0-.636l-7.36-4.551c-.158-.083-.332-.127-.508-.127-.177 0-.351.044-.509.127l-6.382 3.929c-.264.17-.251.453 0 .636l7.373 4.551c.157.087.332.132.509.132.176 0 .351-.045.508-.132Zm37.259-23.008 6.382-3.929c.264-.17.251-.452 0-.636l-7.373-4.551c-.158-.083-.332-.127-.508-.127-.177 0-.351.044-.509.127l-6.368 3.943c-.278.17-.265.452 0 .622l7.372 4.551c.156.084.328.128.502.128.175 0 .347-.044.502-.128Zm-9.248 5.752 6.381-3.929c.264-.17.251-.452 0-.636l-7.491-4.551c-.158-.087-.332-.132-.509-.132s-.351.045-.509.132l-6.368 3.929c-.278.17-.264.452 0 .622l7.372 4.565c.164.09.345.138.529.138.184 0 .365-.048.528-.138h.067Zm18.629-11.504 6.382-3.943c.264-.156.251-.439 0-.622l-7.373-4.551c-.157-.087-.332-.132-.509-.132s-.351.045-.508.132l-6.474 3.858c-.278.17-.251.453 0 .622l7.359 4.551c.156.107.334.171.518.186.185.015.37-.02.539-.101h.066Zm42.623-85.123c.158.087.332.132.509.132s.351-.045.509-.132l6.381-3.943c.264-.155.251-.438 0-.622l-1.955-1.215c-.158-.084-.332-.127-.509-.127-.176 0-.35.043-.509.127l-6.381 3.929c-.264.169-.251.452 0 .636l1.955 1.215ZM303.46 303.43c.158.087.332.132.509.132s.351-.045.509-.132l6.368-3.929c.278-.17.264-.452 0-.636l-7.372-4.551c-.159-.083-.333-.127-.509-.127s-.351.044-.509.127l-6.381 3.929c-.265.17-.251.452 0 .636l7.385 4.551Zm18.63-11.504c.158.083.332.127.509.127.176 0 .35-.044.508-.127l6.382-3.929c.264-.17.251-.453 0-.636l-7.373-4.551c-.157-.087-.331-.132-.508-.132s-.352.045-.509.132l-6.421 3.929c-.278.169-.265.452 0 .636l7.412 4.551Zm-30.005 18.528c.158.083.332.127.508.127.177 0 .351-.044.509-.127l6.368-3.943c.278-.17.264-.452 0-.622l-7.372-4.565c-.158-.083-.333-.127-.509-.127s-.35.044-.509.127l-6.381 3.929c-.264.17-.251.452 0 .636l7.386 4.565Zm20.69-12.72c.158.084.332.127.509.127.176 0 .35-.043.508-.127l6.382-3.929c.264-.169.251-.452 0-.636l-7.372-4.55c-.159-.084-.333-.127-.509-.127-.177 0-.351.043-.509.127l-6.368 3.929c-.278.169-.264.452 0 .636l7.359 4.55Zm-39.386 24.224c.157.087.332.132.509.132s.351-.045.508-.132l6.369-3.943c.277-.17.251-.452 0-.622l-7.36-4.551c-.157-.086-.331-.132-.508-.132s-.352.046-.509.132l-6.382 3.943c-.264.156-.251.439 0 .622l7.373 4.551Zm9.315-5.752c.158.084.332.127.508.127.177 0 .351-.043.509-.127l6.368-3.943c.278-.17.265-.452 0-.622l-7.359-4.551c-.157-.086-.332-.132-.509-.132s-.351.046-.508.132l-6.382 3.943c-.264.156-.251.439 0 .622l7.373 4.551Zm47.895-32.915c.158.083.332.126.508.126.177 0 .351-.043.509-.126l6.382-3.929c.264-.17.251-.453 0-.636l-1.969-1.216c-.158-.083-.332-.127-.509-.127-.176 0-.35.044-.508.127l-6.369 3.929c-.277.17-.251.452 0 .636l1.956 1.216Zm27.957-17.271c.155.087.327.132.502.132s.347-.045.502-.132l6.382-3.943c.264-.17.251-.438 0-.622l-1.956-1.215c-.157-.087-.331-.132-.508-.132s-.352.045-.509.132l-6.381 3.929c-.265.169-.252.452 0 .636l1.968 1.215Zm15.472 9.568c.158.084.332.127.509.127.176 0 .35-.043.508-.127l6.382-3.943c.264-.17.251-.452 0-.622l-7.373-4.565c-.158-.083-.332-.127-.508-.127-.177 0-.351.044-.509.127l-6.368 3.929c-.278.17-.251.452 0 .636l7.359 4.565Zm23.293 25.284 6.382-3.943c.264-.156.251-.438 0-.622l-7.373-4.551c-.158-.083-.332-.127-.508-.127-.177 0-.351.044-.509.127l-6.368 3.943c-.278.17-.265.452 0 .622l7.372 4.551c.156.084.328.128.502.128.175 0 .347-.044.502-.128Zm-57.408-23.334c.159.084.333.127.509.127.177 0 .351-.043.509-.127l6.381-3.929c.265-.169.251-.452 0-.636l-1.968-1.215c-.158-.083-.332-.127-.509-.127-.176 0-.35.044-.509.127l-6.368 3.929c-.264.17-.251.452 0 .636l1.955 1.215Zm-75.839 50.172c.157.087.332.132.509.132s.351-.045.509-.132l6.368-3.943c.264-.169.251-.438 0-.622l-7.373-4.551c-.157-.086-.331-.132-.508-.132s-.352.046-.509.132l-6.368 3.944c-.265.169-.251.438 0 .621l7.372 4.551Z" fill="#455A64"/><path d="m301.954 389.655 69.762-43.092 42.94 26.514-69.775 43.091-42.927-26.513Z" fill="#263238"/><path d="M146.88 172.517 354.791 44.1194c4.056-2.5157 7.385-.4523 7.385 4.5649V220.922c-.066 1.274-.412 2.513-1.009 3.618-.596 1.105-1.427 2.044-2.426 2.742L145.559 358.944c-1.89 1.159-3.435.212-3.435-2.12V181.322c.094-1.763.574-3.478 1.4-5.007.826-1.529 1.975-2.83 3.356-3.798Z" fill="#F5F5F5"/><path d="M362.242 52.811v-4.1268c0-5.0172-3.329-7.0665-7.385-4.5649L146.88 172.517c-1.381.968-2.53 2.269-3.356 3.798-.826 1.529-1.306 3.244-1.4 5.007v7.391L362.242 52.811Z" fill="#F03E3D"/><path d="M331.22 62.2096c-.743.5168-1.36 1.2136-1.803 2.0338-.444.8202-.699 1.7407-.747 2.6866 0 1.7384 1.136 2.445 2.55 1.5688.739-.5153 1.354-1.2101 1.795-2.028.441-.8178.695-1.7355.741-2.6783 0-1.7383-1.136-2.445-2.536-1.5829ZM341.314 55.9763c-.74.5183-1.355 1.2158-1.796 2.0359-.44.8201-.694 1.7398-.741 2.6845 0 1.7383 1.137 2.4308 2.537 1.5687.742-.5167 1.36-1.2135 1.803-2.0337.443-.8203.699-1.7407.747-2.6867 0-1.7383-1.136-2.445-2.55-1.5687ZM351.421 49.7299c-.74.5192-1.356 1.2166-1.799 2.0363-.442.8197-.7 1.7389-.751 2.6841 0 1.7383 1.15 2.445 2.55 1.5687.742-.5145 1.359-1.2089 1.802-2.0266.443-.8178.699-1.7359.748-2.6796 0-1.7384-1.149-2.445-2.55-1.5829Z" fill="#fff"/><path d="m193.463 273.04-8.089-4.996-19.812 36.706 8.089 4.996 19.812-36.706Z" fill="#37474F"/><path d="m193.479 273.029-4.039-2.495-19.812 36.706 4.039 2.495 19.812-36.706Z" fill="#263238"/><path d="M143.841 376.426c-3.686 6.855-21.14-4.027-17.467-10.783l45.517-75.936c.123-.206.315-.353.536-.411.222-.058.456-.022.653.1l9.143 5.653c.197.119.343.316.407.548.064.232.042.481-.063.696l-38.726 80.133Z" fill="#11B5E4"/><path opacity=".1" d="m143.841 376.427 38.712-80.134c.105-.215.128-.464.064-.696-.064-.232-.21-.429-.407-.548l-4.162-2.572-44.381 84.388c4.043 2.134 8.509 2.657 10.174-.438Z" fill="#000"/><path d="M277.683 197.659c0-.579 0-1.145-.079-1.71-.08-.565 0-1.116-.119-1.668-.119-.551 0-.735-.106-1.102-.092-.961-.225-1.908-.37-2.827-.066-.409-.132-.833-.211-1.243-.08-.41-.146-.778-.225-1.159-.225-1.046-.462-2.064-.74-3.039-.145-.466-.277-.933-.423-1.413-.028-.068-.05-.139-.066-.212-.158-.452-.304-.89-.462-1.314-.159-.424-.37-.99-.582-1.414-.211-.424-.29-.692-.462-1.031-.096-.255-.211-.501-.343-.735-.133-.297-.278-.594-.436-.877-.159-.282-.067-.141-.106-.197-.04-.057-.278-.509-.423-.764-.145-.254-.198-.325-.291-.48-.677-1.141-1.437-2.223-2.272-3.237l-.423-.508-.357-.396c-.145-.17-.304-.325-.462-.495-.415-.466-.856-.905-1.321-1.314-.225-.212-.463-.41-.701-.594l-.726-.565c-.378-.296-.771-.57-1.176-.82l-.317-.212h-.066l-18.722-11.56-.106-.071c-3.592-2.143-7.647-3.239-11.759-3.18-6.131 0-13.054 2.148-20.387 6.671-25.183 15.546-45.609 53.394-45.609 84.515 0 15.546 5.073 26.428 13.278 31.544h.08l18.735 11.547h.079l.225.127c.351.222.713.425 1.083.608.449.24.912.452 1.321.65.41.198.833.353 1.256.495l.673.212c.236.096.479.172.727.226.243.079.49.145.74.197.178.056.359.099.542.128.317.07.66.141.991.183.074.014.15.014.224 0 .397.076.793.132 1.189.17 6.791.763 14.693-1.286 23.148-6.501 25.197-15.546 45.623-53.408 45.623-84.515-.066-.65-.066-1.385-.066-2.12Zm-30.56-22.005c.989 3.867 1.474 7.863 1.44 11.872 0 27.446-18.775 62.185-40.959 75.95-3.243 2.062-6.744 3.618-10.398 4.622-.984-3.874-1.468-7.873-1.44-11.886 0-27.446 18.775-62.185 40.958-75.95 3.231-2.055 6.719-3.606 10.359-4.608h.04Z" fill="#11B5E4"/><path opacity=".1" d="m199.161 287.403-18.193-11.221c-8.205-5.13-13.279-16.041-13.279-31.531 0-13.878 4.07-29.085 10.795-43.048l18.735 11.532c-6.738 13.963-10.794 29.17-10.794 43.049 0 15.207 4.835 25.962 12.736 31.219Z" fill="#000"/><path opacity=".4" d="M277.683 197.659c0-.579 0-1.144-.079-1.71-.08-.565 0-1.116-.119-1.667-.119-.552 0-.735-.106-1.103-.092-.961-.224-1.908-.37-2.826-.066-.41-.132-.834-.211-1.244-.08-.41-.146-.777-.225-1.159-.224-1.046-.462-2.063-.74-3.039-.145-.466-.277-.932-.423-1.413-.027-.068-.05-.139-.066-.212-.158-.452-.303-.89-.462-1.314-.159-.424-.37-.989-.581-1.413-.212-.424-.291-.693-.463-1.032-.096-.255-.21-.5-.343-.735-.132-.297-.278-.594-.436-.876-.159-.283-.066-.142-.106-.198-.04-.057-.278-.509-.423-.763-.145-.255-.198-.325-.291-.481-.677-1.141-1.436-2.223-2.272-3.236l-.423-.509-.357-.396c-.145-.169-.303-.325-.462-.494-.415-.467-.856-.906-1.321-1.315-.225-.212-.463-.41-.701-.593l-.726-.566c-.378-.296-.77-.569-1.176-.819-8.284-5.385-19.819-4.749-32.648 3.151-25.196 15.546-45.622 53.394-45.622 84.515 0 15.758 5.284 26.768 13.674 31.771.352.222.713.425 1.084.608.449.24.911.452 1.321.65.41.198.832.353 1.255.494l.674.212c.236.097.479.173.727.226.243.08.49.146.74.198.177.056.358.099.541.127.317.071.661.142.991.184.075.014.151.014.225 0 .396.076.793.132 1.189.17 6.791.763 14.692-1.286 23.148-6.501 25.196-15.547 45.623-53.409 45.623-84.515-.04-.707-.04-1.442-.04-2.177Zm-50.207 78.169c-5.655 3.491-11.099 5.329-15.749 5.329-8.734 0-12.75-6.374-14.534-13.059-.984-3.873-1.468-7.872-1.44-11.886 0-27.446 18.775-62.185 40.958-75.95 3.243-2.058 6.745-3.61 10.398-4.608 1.73-.458 3.504-.7 5.285-.72 14.442 0 15.987 17.44 15.987 24.944.053 27.39-18.722 62.227-40.905 75.95Z" fill="#fff"/><path opacity=".1" d="M268.434 199.878c0 27.446-18.761 62.185-40.958 75.95-5.655 3.491-11.099 5.328-15.749 5.328-8.734 0-12.75-6.374-14.534-13.058 3.654-1.004 7.155-2.56 10.398-4.622 22.223-13.723 40.959-48.504 40.959-75.95.034-4.01-.451-8.005-1.441-11.872 1.73-.458 3.504-.7 5.285-.721 14.481.043 16.04 17.44 16.04 24.945Z" fill="#000"/><path opacity=".7" d="M260.507 195.087c0 27.446-18.762 62.185-40.959 75.95-5.655 3.491-11.098 5.328-15.749 5.328-.925.003-1.849-.078-2.761-.24-1.786-2.359-3.087-5.095-3.819-8.027-.984-3.874-1.468-7.873-1.44-11.886 0-27.446 18.775-62.185 40.958-75.95 3.244-2.059 6.745-3.61 10.399-4.608 1.729-.458 3.503-.7 5.285-.721.929-.002 1.857.078 2.774.241 4.572 5.752 5.312 14.981 5.312 19.913Z" fill="#fff"/><path d="M292.441 166.497v31.29c0 2.346 1.546 3.293 3.436 2.12L487.589 81.5154c.998-.698 1.829-1.6372 2.426-2.7419.597-1.1048.942-2.344 1.009-3.6179V43.8229c0-2.3461-1.546-3.293-3.435-2.1199L295.877 160.094c-1.003.703-1.837 1.65-2.434 2.762-.597 1.112-.94 2.36-1.002 3.641Z" fill="#E6E6E6"/><path d="m295.876 160.094 34.141-21.072v39.77l-34.141 21.072c-1.889 1.173-3.435.226-3.435-2.12v-31.248c.062-1.281.405-2.528 1.002-3.641.597-1.112 1.431-2.058 2.433-2.761Z" fill="#BA68C8"/><path d="M318.721 156.378c-2.154-1.329-4.876-1.117-7.663.607-2.65 1.816-4.854 4.284-6.428 7.198-1.575 2.913-2.474 6.188-2.623 9.55-.093 2.179.549 4.321 1.81 6.035l-3.673 6.727c-.239.481-.297 1.042-.162 1.568.135.525.453.976.889 1.258.303.182.643.28.991.283.348 0 .69-.097.991-.284.302-.186.552-.453.726-.776l3.634-6.727c.392.079.79.121 1.189.127 1.622-.032 3.208-.519 4.598-1.413 2.644-1.82 4.844-4.289 6.416-7.202 1.572-2.913 2.471-6.186 2.621-9.546.04-3.434-1.149-6.063-3.316-7.405Zm-7.663 20.492c-.465.534-1.084.884-1.758.993-.675.108-1.363-.031-1.954-.395-.59-.364-1.048-.932-1.298-1.61-.249-.679-.277-1.428-.077-2.125.154-2.615.872-5.156 2.099-7.425 1.226-2.268 2.927-4.201 4.969-5.648.793-.54 1.704-.847 2.643-.89.387-.016.771.082 1.11.282.497.455.879 1.037 1.11 1.691.231.655.303 1.362.211 2.054-.153 2.614-.869 5.155-2.093 7.423s-2.923 4.202-4.962 5.65Z" fill="#fff"/></svg>