<svg width="600" height="556" fill="none" xmlns="http://www.w3.org/2000/svg"><path d="M87.8664 509.822c117.1626 61.203 307.1046 61.203 424.2676 0 117.162-61.203 117.148-160.425 0-221.628-117.149-61.203-307.105-61.203-424.2676 0-117.1622 61.203-117.1482 160.425 0 221.628Z" fill="#F5F5F5"/><path d="M513.742 358.975c22.835 0 41.347-8.821 41.347-19.702 0-10.881-18.512-19.702-41.347-19.702-22.836 0-41.347 8.821-41.347 19.702 0 10.881 18.511 19.702 41.347 19.702ZM87.1393 474.235c20.9357 0 37.9077-8.088 37.9077-18.065 0-9.978-16.972-18.066-37.9077-18.066-20.9357 0-37.9075 8.088-37.9075 18.066 0 9.977 16.9718 18.065 37.9075 18.065ZM368.586 508.969c21.785 0 39.445-8.42 39.445-18.807 0-10.387-17.66-18.807-39.445-18.807s-39.446 8.42-39.446 18.807c0 10.387 17.661 18.807 39.446 18.807ZM172.798 418.975c21.785 0 39.446-8.42 39.446-18.807 0-10.386-17.661-18.807-39.446-18.807-21.785 0-39.445 8.421-39.445 18.807 0 10.387 17.66 18.807 39.445 18.807Z" fill="#E6E6E6"/><path d="M404.927 293.284c.965-11.592 27.532-55.079 35.656-61.818 8.124-6.74 22.471-23.771 16.29-33.447-6.18-9.677-24.344-5.37-41.403 24.791-13.227 23.393-17.338 75.13-17.338 75.13l6.795-4.656Z" fill="#02897A"/><path d="M401.292 292.193h-.112c-.091-.013-.178-.045-.256-.093-.078-.047-.146-.11-.199-.184-.054-.075-.092-.159-.112-.248-.02-.089-.023-.182-.007-.272 7.509-48.548 23.464-78.835 48.773-92.594.163-.089.355-.11.533-.057.088.026.171.069.242.126.072.058.131.13.175.21.044.081.072.17.082.261.01.092.001.184-.025.273-.025.088-.069.17-.126.242-.058.072-.129.131-.21.175-24.904 13.536-40.62 43.501-48.073 91.588-.03.16-.114.305-.239.41-.125.105-.283.162-.446.163Z" fill="#fff"/><path d="M407.598 237.045s21.324-36.859 38.984-53.736c9.788-9.355 15.801-15.381 15.269-22.457-.391-5.369-4.852-8.236-14.444-5.873-19.114 4.699-29.364 24.065-35.964 45.752-4.684 15.27-3.845 36.314-3.845 36.314Z" fill="#37474F"/><path opacity=".2" d="M407.598 237.045s21.324-36.859 38.984-53.736c9.788-9.355 15.801-15.381 15.269-22.457-.391-5.369-4.852-8.236-14.444-5.873-19.114 4.699-29.364 24.065-35.964 45.752-4.684 15.27-3.845 36.314-3.845 36.314Z" fill="#00FFE3"/><path d="M410.073 230.99h-.098c-.185-.031-.35-.133-.46-.285-.11-.152-.156-.341-.127-.526 7.592-47.905 36.453-65.943 45.122-70.334.165-.082.357-.097.532-.039.176.058.321.182.405.347.043.081.069.171.077.262.008.092-.003.184-.032.272-.029.087-.075.168-.135.237-.061.07-.135.126-.218.166-8.515 4.321-36.872 22.051-44.367 69.313-.027.165-.112.316-.241.423-.128.108-.291.166-.458.164Z" fill="#fff"/><path d="m527.039 128.244-4.614-8.669 3.705-10.711v-6.558l-11.354 6.558v6.558l4.88 8.473c.076.133.195.236.336.294l7.047 4.055Z" fill="#11B5E4"/><path opacity=".1" d="m527.039 128.244-4.614-8.669 3.705-10.711v-6.558l-11.354 6.558v6.558l4.88 8.473c.076.133.195.236.336.294l7.047 4.055Z" fill="#000"/><path d="m500.696 87.5401 31.265-18.1777c1.057-.5312 2.223-.8079 3.405-.8079s2.348.2767 3.405.8079l2.796 1.608c.995.6439 1.823 1.5144 2.416 2.5401.593 1.0257.934 2.1774.996 3.3607v25.3368c-.065 1.183-.408 2.333-1 3.358-.593 1.025-1.419 1.896-2.412 2.543l-31.293 18.178c-1.057.531-2.223.807-3.405.807s-2.348-.276-3.405-.807l-2.796-1.609c-.992-.646-1.816-1.517-2.407-2.543-.59-1.025-.93-2.176-.991-3.357V93.4129c.072-1.1786.419-2.3239 1.014-3.3438.595-1.02 1.421-1.8862 2.412-2.529Z" fill="#11B5E4"/><path opacity=".3" d="m500.696 87.5401 31.265-18.1777c1.057-.5312 2.223-.8079 3.405-.8079s2.348.2767 3.405.8079l2.796 1.608c.995.6439 1.823 1.5144 2.416 2.5401.593 1.0257.934 2.1774.996 3.3607v25.3368c-.065 1.183-.408 2.333-1 3.358-.593 1.025-1.419 1.896-2.412 2.543l-31.293 18.178c-1.057.531-2.223.807-3.405.807s-2.348-.276-3.405-.807l-2.796-1.609c-.992-.646-1.816-1.517-2.407-2.543-.59-1.025-.93-2.176-.991-3.357V93.4129c.072-1.1786.419-2.3239 1.014-3.3438.595-1.02 1.421-1.8862 2.412-2.529Z" fill="#fff"/><path d="M510.288 126.259c-1.888 1.076-3.412.209-3.412-1.972V98.9501c.065-1.1824.408-2.3329 1.001-3.3581.592-1.0252 1.418-1.8963 2.411-2.5426l31.293-18.1777c1.888-1.0907 3.412-.2098 3.412 1.9716V102.18c-.065 1.183-.408 2.333-1.001 3.358-.592 1.025-1.418 1.897-2.411 2.543" fill="#11B5E4"/><path d="M497.298 118.75c.061 1.182.401 2.332.991 3.357.591 1.026 1.415 1.897 2.407 2.544l2.796 1.608c.96.481 2.01.754 3.083.8 1.073.046 2.143-.137 3.14-.535-1.594.615-2.797-.293-2.797-2.237V98.9501c.045-1.186.392-2.3409 1.007-3.3559l-9.592-5.5931c-.61 1.0163-.952 2.1711-.993 3.3559l-.042 25.393Z" fill="#11B5E4"/><path opacity=".1" d="M497.298 118.75c.061 1.182.401 2.332.991 3.357.591 1.026 1.415 1.897 2.407 2.544l2.796 1.608c.96.481 2.01.754 3.083.8 1.073.046 2.143-.137 3.14-.535-1.594.615-2.797-.293-2.797-2.237V98.9501c.045-1.186.392-2.3409 1.007-3.3559l-9.592-5.5931c-.61 1.0163-.952 2.1711-.993 3.3559l-.042 25.393Z" fill="#000"/><path d="m521.894 119.533 4.88 8.459c.072.12.176.216.301.278.124.063.264.089.402.076.139-.013.271-.065.382-.15.11-.085.194-.199.243-.329l5.16-14.892v-6.558l-11.368 6.558v6.558Z" fill="#11B5E4"/><path d="m525.949 110.877-3.496-.922c-3.328-.881-7.299-2.797-7.299-7.09.167-1.749.745-3.4336 1.685-4.918.94-1.4843 2.217-2.7262 3.726-3.6253.495-.3539 1.076-.5685 1.682-.6214.606-.0529 1.215.0578 1.763.3207.549.2629 1.017.6682 1.355 1.1737.339.5054.535 1.0925.57 1.6999.349-2.7966 2.614-7.1872 5.369-8.7812 2.992-1.7199 5.411-.6992 5.411 2.2931 0 4.2788-3.957 10.7945-7.285 15.5205l-3.481 4.95Z" fill="#fff"/><path d="m63.6761 194.788 31.2936-18.108c1.0544-.537 2.2212-.818 3.4048-.818 1.1836 0 2.3505.281 3.4045.818l2.797 1.595c.989.648 1.812 1.52 2.402 2.545.59 1.025.931 2.174.996 3.355v25.337c-.065 1.181-.406 2.33-.996 3.355s-1.413 1.897-2.402 2.546l-31.2518 18.108c-1.0568.538-2.2259.818-3.4118.818-1.1858 0-2.3549-.28-3.4118-.818l-2.7965-1.594c-1.0049-.649-1.841-1.528-2.4391-2.563-.5981-1.036-.9412-2.199-1.0007-3.394v-25.281c.0618-1.183.4032-2.335.9963-3.361.593-1.025 1.4209-1.896 2.4155-2.54Z" fill="#FF7800"/><path opacity=".3" d="m63.6761 194.788 31.2936-18.108c1.0544-.537 2.2212-.818 3.4048-.818 1.1836 0 2.3505.281 3.4045.818l2.797 1.595c.989.648 1.812 1.52 2.402 2.545.59 1.025.931 2.174.996 3.355v25.337c-.065 1.181-.406 2.33-.996 3.355s-1.413 1.897-2.402 2.546l-31.2518 18.108c-1.0568.538-2.2259.818-3.4118.818-1.1858 0-2.3549-.28-3.4118-.818l-2.7965-1.594c-1.0049-.649-1.841-1.528-2.4391-2.563-.5981-1.036-.9412-2.199-1.0007-3.394v-25.281c.0618-1.183.4032-2.335.9963-3.361.593-1.025 1.4209-1.896 2.4155-2.54Z" fill="#fff"/><path d="m90.0057 235.521-4.6143-8.684 3.7194-10.711v-6.558l-11.368 6.614v6.558l4.894 8.39c.074.129.1864.232.3216.294l7.0473 4.097Z" fill="#FF7800"/><path opacity=".1" d="m90.0057 235.521-4.6143-8.684 3.7194-10.711v-6.558l-11.368 6.614v6.558l4.894 8.39c.074.129.1864.232.3216.294l7.0473 4.097Z" fill="#000"/><path d="M73.3242 233.521c-1.8877 1.091-3.4118.21-3.4118-1.972v-25.337c.065-1.18.408-2.329 1.0008-3.352.5929-1.023 1.419-1.891 2.411-2.534l31.3078-18.178c1.873-1.077 3.398-.196 3.398 1.972v25.336c-.065 1.181-.406 2.331-.996 3.356-.591 1.024-1.413 1.896-2.402 2.545" fill="#FF7800"/><path d="M60.2643 225.97c.0651 1.182.4079 2.333 1.0007 3.358s1.4188 1.896 2.4111 2.543l2.7966 1.594c.9619.481 2.0141.754 3.0884.802 1.0743.048 2.1468-.13 3.1479-.523-1.608.602-2.7966-.307-2.7966-2.251v-25.281c.0411-1.184.3827-2.339.9928-3.356l-9.5782-5.523c-.615 1.015-.9615 2.17-1.0068 3.356l-.0559 25.281Z" fill="#FF7800"/><path opacity=".1" d="M60.2643 225.97c.0651 1.182.4079 2.333 1.0007 3.358s1.4188 1.896 2.4111 2.543l2.7966 1.594c.9619.481 2.0141.754 3.0884.802 1.0743.048 2.1468-.13 3.1479-.523-1.608.602-2.7966-.307-2.7966-2.251v-25.281c.0411-1.184.3827-2.339.9928-3.356l-9.5782-5.523c-.615 1.015-.9615 2.17-1.0068 3.356l-.0559 25.281Z" fill="#000"/><path d="m84.874 226.795 4.88 8.39c.07.12.1729.217.2965.281.1236.063.2627.09.401.076.1383-.013.2698-.065.3792-.151.1093-.086.1918-.201.2377-.332l5.1597-14.892v-6.558l-11.3541 6.558v6.628Z" fill="#FF7800"/><path d="M77.0995 211.666c-.9433.607-1.7266 1.432-2.2839 2.405-.5573.974-.8722 2.067-.9181 3.188 0 2.041 1.3982 2.796 3.202 1.846.9369-.614 1.7154-1.441 2.2719-2.413.5565-.972.8752-2.062.9302-3.181.014-2.041-1.3843-2.922-3.2021-1.845ZM88.915 204.828c-.941.611-1.7235 1.436-2.2826 2.409-.5592.972-.8791 2.064-.9334 3.184 0 2.042 1.3983 2.867 3.216 1.846.9369-.614 1.7154-1.441 2.2719-2.413.5565-.972.8752-2.061.9302-3.18 0-2.042-1.4402-2.867-3.2021-1.846ZM100.717 198.004c-.9373.614-1.7158 1.441-2.2723 2.413-.5565.972-.8752 2.062-.9302 3.181 0 2.041 1.3983 2.796 3.2025 1.845.943-.607 1.726-1.432 2.284-2.405.557-.974.872-2.067.918-3.188 0-2.055-1.427-2.88-3.202-1.846Z" fill="#fff"/><path d="M395.503 11.2361 259.561 89.6798c-1.761 1.1498-3.228 2.6984-4.28 4.5204-1.051 1.822-1.659 3.8661-1.774 5.9668v300.897c0 3.859 2.713 5.425 6.054 3.495l135.942-78.443c1.761-1.15 3.228-2.699 4.279-4.521 1.052-1.822 1.66-3.866 1.775-5.967V14.7318c0-3.8592-2.713-5.42532-6.054-3.4957Z" fill="#37474F"/><path d="M259.562 89.6798 395.503 11.236c2.992-1.71984 5.467-.6432 5.956 2.3631-.276-1.8914-.949-3.70293-1.976-5.31528-1.027-1.61235-2.383-2.98896-3.98-4.03919l-4.936-2.79657C388.691.496111 386.616 0 384.512 0c-2.104 0-4.178.496111-6.054 1.44806L242.517 79.8498c-1.789 1.1156-3.262 2.6704-4.279 4.5165l17.045 9.788c1.023-1.8307 2.496-3.3706 4.279-4.4745Z" fill="#455A64"/><path d="M236.462 391.22c.112 2.101.72 4.146 1.772 5.968s2.519 3.371 4.282 4.519l4.936 2.796c1.707.861 3.576 1.349 5.485 1.433 1.909.085 3.814-.237 5.59-.943-2.797 1.076-5.02-.532-5.02-3.985V100.125c.07-2.1096.682-4.1657 1.776-5.9707l-17.045-9.788c-1.092 1.8062-1.703 3.8616-1.776 5.9707V391.22Z" fill="#263238"/><path d="m262.82 127.154 129.425-74.6826c1.999-1.1606 3.635-.2238 3.635 2.0974V282.363c-.071 1.26-.438 2.486-1.069 3.579s-1.51 2.022-2.566 2.713L262.82 363.324c-2 1.16-3.636.224-3.636-2.098v-227.78c.067-1.261.432-2.489 1.063-3.582.632-1.094 1.514-2.022 2.573-2.71Z" fill="#FAFAFA"/><path d="M326.162 62.1336c-.619.406-1.133.9515-1.502 1.5927-.37.6411-.583 1.36-.624 2.0987 0 1.3983.951 1.9157 2.126 1.2305.62-.4044 1.136-.9495 1.505-1.591s.582-1.3612.62-2.1005c0-1.3563-.951-1.9016-2.125-1.2304ZM306.041 83.7791c-1.229.8166-2.248 1.91-2.976 3.1923-.729 1.2823-1.147 2.7176-1.219 4.1906 0 2.7127 1.901 3.8174 4.195 2.461 1.241-.808 2.275-1.8978 3.016-3.1807.741-1.283 1.169-2.7227 1.248-4.2022 0-2.7127-1.915-3.8173-4.264-2.461ZM316.458 82.8561c0 1.8178 1.398 2.5029 3.034 1.5381l27.966-16.1781c.863-.5435 1.586-1.2822 2.11-2.1567.525-.8744.837-1.86.91-2.8771 0-1.8038-1.398-2.489-3.02-1.5242l-27.966 16.1782c-.864.5396-1.59 1.2753-2.117 2.1474-.527.8721-.841 1.8562-.917 2.8724Z" fill="#263238"/><path d="M245.886 136.159c.995.644 1.823 1.514 2.416 2.54s.934 2.177.996 3.361c0 2.167-1.524 3.048-3.412 1.971-.99-.651-1.813-1.525-2.403-2.553-.59-1.027-.931-2.179-.994-3.362.027-2.167 1.524-3.034 3.397-1.957ZM245.886 162.404c.993.647 1.819 1.518 2.411 2.543.593 1.025.936 2.176 1.001 3.358 0 2.181-1.524 3.062-3.412 1.972-.974-.645-1.786-1.507-2.371-2.519-.584-1.012-.926-2.146-.999-3.312 0-2.237 1.497-3.118 3.37-2.042Z" fill="#37474F"/><path d="M244.838 136.676c.992.646 1.818 1.517 2.411 2.543.592 1.025.935 2.175 1 3.358 0 2.181-1.524 3.062-3.411 1.971-.991-.648-1.816-1.519-2.409-2.544-.592-1.025-.936-2.175-1.003-3.357 0-2.167 1.538-3.048 3.412-1.971ZM244.838 162.936c.992.646 1.818 1.517 2.411 2.542.592 1.026.935 2.176 1 3.359 0 2.181-1.524 3.062-3.411 1.971-.991-.648-1.816-1.519-2.409-2.544-.592-1.025-.936-2.175-1.003-3.357 0-2.181 1.538-3.062 3.412-1.971Z" fill="#455A64"/><path d="M327.532 336.043c-2.444 1.596-4.477 3.746-5.935 6.275-1.458 2.529-2.299 5.367-2.455 8.281 0 5.37 3.762 7.537 8.39 4.866 2.444-1.599 4.478-3.751 5.935-6.282 1.458-2.532 2.299-5.371 2.455-8.288.014-5.369-3.748-7.536-8.39-4.852Z" fill="#263238"/><path d="M289.653 360.08c-1.189 0-1.315-1.398-1.315-1.902v-227.78c.074-1.138.408-2.243.978-3.23.57-.987 1.36-1.829 2.308-2.461l129.425-74.6825c.387-.2311.823-.3654 1.273-.3916 1.188 0 1.314 1.3144 1.314 1.8877V279.315c-.072 1.136-.406 2.239-.976 3.224-.57.985-1.361 1.825-2.31 2.453l-129.425 74.682c-.382.243-.82.383-1.272.406Z" fill="#fff" stroke="#141414" stroke-miterlimit="10"/><path d="M422.322 50.3321c.531 0 .615.7411.615 1.1886V279.315c-.07 1.014-.371 1.998-.88 2.878-.509.88-1.213 1.631-2.056 2.198l-129.425 74.682c-.279.176-.595.281-.923.308-.532 0-.616-.755-.616-1.203v-227.78c.071-1.014.372-1.998.881-2.878.509-.88 1.212-1.631 2.056-2.198l129.425-74.6823c.275-.1814.594-.2874.923-.3076Zm0-1.3983c-.574.0192-1.133.1879-1.622.4894L291.275 124.106c-1.059.688-1.941 1.616-2.572 2.71-.632 1.093-.997 2.321-1.064 3.582v227.78c0 1.65.825 2.601 2.014 2.601.575-.025 1.134-.198 1.622-.503L420.7 285.607c1.058-.689 1.939-1.617 2.571-2.711.631-1.093.996-2.32 1.064-3.581V51.5207c0-1.636-.825-2.5869-2.013-2.5869Z" fill="#37474F" stroke="#141414" stroke-miterlimit="10"/><path d="M424.293 51.5207c0-2.3212-1.622-3.258-3.635-2.0974L291.233 124.106c-1.059.688-1.941 1.616-2.572 2.71-.632 1.093-.997 2.321-1.064 3.582v18.667l136.696-78.8772V51.5207Z" fill="#37474F"/><path opacity=".1" d="M424.293 51.5207c0-2.3212-1.622-3.258-3.635-2.0974L291.233 124.106c-1.059.688-1.941 1.616-2.572 2.71-.632 1.093-.997 2.321-1.064 3.582v18.667l136.696-78.8772V51.5207Z" fill="#000"/><path d="M301.902 128.412c-.231-.087-.479-.116-.722-.084-.244.032-.477.123-.677.266-.719.477-1.318 1.114-1.749 1.861-.432.748-.685 1.584-.74 2.446-.035.247-.003.5.093.731.096.232.252.433.453.583.229.094.48.126.725.092.246-.035.478-.134.673-.288.714-.477 1.309-1.113 1.739-1.857.429-.745.681-1.578.736-2.435.036-.247.007-.499-.087-.73-.093-.231-.247-.433-.444-.585Z" fill="#fff"/><path d="m304.852 123.644-.308.182v-.629c0-.881-.615-1.245-1.398-.797l-5.873 3.384c-.404.261-.74.613-.983 1.029-.243.415-.385.881-.415 1.362v.643l-.322.182c-.536.348-.983.819-1.304 1.373-.321.554-.506 1.176-.541 1.815v5.691c0 1.174.824 1.664 1.845 1.076l9.271-5.355c.538-.351.985-.824 1.306-1.38.321-.557.505-1.181.54-1.822v-5.719c.028-1.147-.797-1.622-1.818-1.035Zm-4.363 11.298c-.451.276-.967.43-1.496.448-.343.003-.68-.084-.979-.252-.361-.244-.652-.58-.841-.973-.189-.393-.27-.829-.235-1.264.048-1.048.348-2.069.874-2.976.525-.908 1.261-1.676 2.146-2.24.355-.256.774-.41 1.21-.444.436-.035.874.051 1.265.248.362.243.652.579.839.973.187.394.264.831.224 1.265-.05 1.046-.348 2.065-.871 2.972s-1.255 1.676-2.136 2.243Zm4.195-7.592c-.475.265-.853 0-.853-.504.014-.297.099-.586.248-.844.148-.258.355-.476.605-.638.475-.28.867 0 .867.489-.011.295-.09.584-.23.844-.141.259-.34.483-.581.653h-.056ZM416.855 57.2675l-9.047 5.2156c-.525.3416-.961.8019-1.275 1.3437-.313.5417-.494 1.1496-.529 1.7745v5.5931c0 1.1326.811 1.6081 1.804 1.0348l5.383-3.1042 2.111 2.1114c.05.046.112.0766.179.0882.066.0115.135.0035.197-.0232.062-.0266.115-.0707.153-.1269.037-.0563.058-.1222.059-.1898v-3.4258l.965-.5593c.532-.3369.977-.7952 1.297-1.3372.321-.542.509-1.1524.548-1.781v-5.5931c0-1.1326-.853-1.5941-1.845-1.0208Z" fill="#fff"/><path d="M305.062 145.737c4.726-2.685 8.557-.503 8.557 4.894-.169 2.952-1.033 5.822-2.52 8.378-1.486 2.556-3.555 4.725-6.037 6.332-4.74 2.797-8.572.545-8.572-4.894.159-2.956 1.019-5.832 2.51-8.39 1.49-2.558 3.568-4.724 6.062-6.32ZM322.093 139.151l28.399-16.388c1.678-.965 3.034-.28 3.034 1.524-.074 1.019-.387 2.006-.914 2.88-.527.875-1.254 1.613-2.12 2.154l-28.399 16.388c-1.664.965-3.02.279-3.02-1.524.073-1.017.385-2.003.909-2.877.525-.875 1.248-1.614 2.111-2.157Z" fill="#37474F"/><path opacity=".7" d="m322.093 139.151 28.399-16.388c1.678-.965 3.034-.28 3.034 1.524-.074 1.019-.387 2.006-.914 2.88-.527.875-1.254 1.613-2.12 2.154l-28.399 16.388c-1.664.965-3.02.279-3.02-1.524.073-1.017.385-2.003.909-2.877.525-.875 1.248-1.614 2.111-2.157Z" fill="#fff"/><path d="m321.142 150.771 19.478-11.187c1.147-.657 2.07-.195 2.07 1.049-.05.698-.264 1.374-.623 1.974-.36.6-.855 1.107-1.447 1.48l-19.478 11.186c-1.147.657-2.069.182-2.069-1.063.051-.695.264-1.369.624-1.966.359-.598.854-1.102 1.445-1.473Z" fill="#37474F"/><path opacity=".7" d="m321.142 150.771 19.478-11.187c1.147-.657 2.07-.195 2.07 1.049-.05.698-.264 1.374-.623 1.974-.36.6-.855 1.107-1.447 1.48l-19.478 11.186c-1.147.657-2.069.182-2.069-1.063.051-.695.264-1.369.624-1.966.359-.598.854-1.102 1.445-1.473Z" fill="#fff"/><path d="M305.062 292.752c4.726-2.684 8.557-.489 8.557 4.894-.169 2.952-1.033 5.823-2.52 8.379-1.486 2.555-3.555 4.725-6.037 6.331-4.74 2.797-8.572.546-8.572-4.894.163-2.955 1.024-5.83 2.514-8.387 1.49-2.557 3.567-4.724 6.058-6.323ZM322.093 286.181l28.399-16.402c1.678-.965 3.034-.28 3.034 1.524-.074 1.018-.387 2.005-.914 2.88s-1.254 1.613-2.12 2.154l-28.399 16.402c-1.664.964-3.02.279-3.02-1.539.075-1.014.388-1.997.912-2.869.525-.872 1.247-1.608 2.108-2.15Z" fill="#37474F"/><path opacity=".7" d="m322.093 286.181 28.399-16.402c1.678-.965 3.034-.28 3.034 1.524-.074 1.018-.387 2.005-.914 2.88s-1.254 1.613-2.12 2.154l-28.399 16.402c-1.664.964-3.02.279-3.02-1.539.075-1.014.388-1.997.912-2.869.525-.872 1.247-1.608 2.108-2.15Z" fill="#fff"/><path d="M321.142 297.786 340.62 286.6c1.147-.657 2.07-.196 2.07 1.049-.05.697-.264 1.374-.623 1.973-.36.6-.855 1.107-1.447 1.481l-19.478 11.186c-1.147.657-2.069.182-2.069-1.049.048-.698.261-1.374.621-1.974.36-.601.856-1.107 1.448-1.48Z" fill="#37474F"/><path opacity=".7" d="M321.142 297.786 340.62 286.6c1.147-.657 2.07-.196 2.07 1.049-.05.697-.264 1.374-.623 1.973-.36.6-.855 1.107-1.447 1.481l-19.478 11.186c-1.147.657-2.069.182-2.069-1.049.048-.698.261-1.374.621-1.974.36-.601.856-1.107 1.448-1.48Z" fill="#fff"/><path d="m302.405 173.479 107.542-62.084c1.678-.965 3.034-.182 3.034 1.748v107.402c-.057 1.053-.361 2.078-.888 2.992-.528.913-1.263 1.689-2.146 2.266L302.405 288.25c-1.678.965-3.02.182-3.02-1.748v-107.78c.054-1.05.356-2.072.881-2.984.525-.911 1.258-1.685 2.139-2.259Z" fill="#F5F5F5"/><path d="M341.878 198.075c-.274-.403-.654-.722-1.097-.925-.443-.202-.933-.279-1.417-.223-.483.056-.943.244-1.328.542-.385.298-.681.696-.856 1.151l-37.753 71.704v16.178c0 1.93 1.398 2.713 3.02 1.748l107.542-62.126c.883-.576 1.618-1.352 2.145-2.266.527-.913.832-1.938.889-2.991v-35.796l-20.429-36.286c-1.132-2.027-2.713-1.901-3.538.266l-27.196 72.081-19.982-23.057Z" fill="#37474F"/><path opacity=".3" d="M341.878 198.075c-.274-.403-.654-.722-1.097-.925-.443-.202-.933-.279-1.417-.223-.483.056-.943.244-1.328.542-.385.298-.681.696-.856 1.151l-37.753 71.704v16.178c0 1.93 1.398 2.713 3.02 1.748l107.542-62.126c.883-.576 1.618-1.352 2.145-2.266.527-.913.832-1.938.889-2.991v-35.796l-20.429-36.286c-1.132-2.027-2.713-1.901-3.538.266l-27.196 72.081-19.982-23.057Z" fill="#00564C"/><path d="M310.725 202.535c9.48-5.439 17.185-18.695 17.185-29.601 0-5.594-2.014-9.425-5.216-11.187l-20.289 11.704c-.881.574-1.614 1.348-2.139 2.259-.525.912-.827 1.934-.881 2.984v25.365c3.02 1.357 6.977.937 11.34-1.524Z" fill="#37474F"/><path opacity=".6" d="M310.725 202.535c9.48-5.439 17.185-18.695 17.185-29.601 0-5.594-2.014-9.425-5.216-11.187l-20.289 11.704c-.881.574-1.614 1.348-2.139 2.259-.525.912-.827 1.934-.881 2.984v25.365c3.02 1.357 6.977.937 11.34-1.524Z" fill="#fff"/><path d="m302.405 321.054 107.542-62.098c1.678-.965 3.034-.28 3.034 1.538-.076 1.016-.39 2-.917 2.873-.527.872-1.252 1.607-2.117 2.147l-107.542 62.098c-1.678.965-3.02.279-3.02-1.538.071-1.016.382-2.001.907-2.873.525-.873 1.249-1.608 2.113-2.147Z" fill="#37474F"/><path opacity=".6" d="m302.405 321.054 107.542-62.098c1.678-.965 3.034-.28 3.034 1.538-.076 1.016-.39 2-.917 2.873-.527.872-1.252 1.607-2.117 2.147l-107.542 62.098c-1.678.965-3.02.279-3.02-1.538.071-1.016.382-2.001.907-2.873.525-.873 1.249-1.608 2.113-2.147Z" fill="#fff"/><path d="m302.405 334.17 107.542-62.056c1.678-.965 3.034-.28 3.034 1.538-.076 1.016-.39 2-.917 2.872-.527.872-1.252 1.608-2.117 2.148L302.405 340.77c-1.678.964-3.02.279-3.02-1.539.066-1.022.374-2.015.899-2.895.525-.88 1.252-1.623 2.121-2.166Z" fill="#37474F"/><path opacity=".6" d="m302.405 334.17 107.542-62.056c1.678-.965 3.034-.28 3.034 1.538-.076 1.016-.39 2-.917 2.872-.527.872-1.252 1.608-2.117 2.148L302.405 340.77c-1.678.964-3.02.279-3.02-1.539.066-1.022.374-2.015.899-2.895.525-.88 1.252-1.623 2.121-2.166Z" fill="#fff"/><path d="m318.988 115.017 76.724-44.256c2.349-1.3983 4.195-.2517 4.195 2.447-.072 1.4654-.49 2.8929-1.219 4.1662-.729 1.2733-1.749 2.3563-2.976 3.1608l-76.71 44.13c-2.349 1.398-4.194.279-4.194-2.377.079-1.455.499-2.87 1.225-4.133.726-1.263 1.738-2.338 2.955-3.138Z" fill="#FAFAFA"/><path d="m544.406 198.956 5.439 9.969-8.46 7.257-7.76-12.291 10.781-4.935Z" fill="#F28F8F"/><path d="M523.991 176.737c5.397 0 11.34 2.013 13.382 6.25l8.389 17.395s-4.768 6.991-12.333 6.488l-9.438-30.133Z" fill="#E0E0E0"/><path d="M543.986 210.477c1.58-2.936 1.972-3.076 2.909-3.719.936-.643 6.697-1.496 9.088-1.706 2.797-.238 3.818.28 3.035 2.699-2.154 6.101-4.791 12.02-7.887 17.702-.755.993-.895 1.916-4.069 2.237-2.95.28-6.655.448-7.746.504-1.091.056-2.601.349-1.636-2.867 1.248-3.633 2.695-7.194 4.335-10.669 1.216-2.67 1.971-4.181 1.971-4.181Z" fill="#37474F"/><path d="M480.98 309.406c-1.399-.699-2.196 1.006-3.412 2.377-1.045 1.008-1.86 2.228-2.391 3.579-.294 1.608 1.174 4.195 2.796 5.594 1.622 1.398 3.496 2.419 4.083 5.495.152 1.411.7 2.751 1.58 3.865.881 1.113 2.059 1.955 3.398 2.427 3.496 1.51 8.18 1.021 9.788 0 1.874-1.216.154-2.559-2.475-6.334-3.439-4.922-6.124-8.39-6.124-13.046l-7.243-3.957Z" fill="#263238"/><path d="m483.735 305.365-2.797 4.195c-.603.857-.842 1.918-.664 2.951.178 1.033.759 1.953 1.615 2.558l.084.07c.86.51 1.871.704 2.859.549.988-.156 1.891-.652 2.552-1.402l4.419-4.81-8.068-4.111Z" fill="#FFA8A7"/><path d="M535.666 224.488c.182 5.286-1.314 26.637-4.963 36.076-3.65 9.438-5.761 15.311-6.908 17.283-1.147 1.971-34.23 34.16-34.23 34.16s-5.593-.406-6.502-5.845c0 0 13.549-23.044 16.486-27.77 2.936-4.726 13.339-11.969 13.339-11.969l-.95-41.334 23.728-.601Z" fill="#37474F"/><path d="M486.657 219.342c0-.909 2.796-11.354 4.195-16.178l10.249 3.524-2.405 7.607-9.019 9.326c-.956-.19-1.802-.74-2.364-1.537-.562-.796-.797-1.777-.656-2.742ZM528.378 336.975l6.995-1.59-2.316-10.185-6.995 1.59 2.316 10.185Z" fill="#FFA8A7"/><path d="M535.667 224.488h-33.559c-.733 4.9-1.154 9.841-1.259 14.794-.265 14.542 13.27 40.956 13.27 40.956-.649 5.877-.357 11.819.867 17.604 2.964 11.578 11.046 31.196 11.046 31.196s5.076.713 7.579-2.209c0 0-4.474-39.81-5.677-50.003-1.3-11.047-4.656-31.196-4.656-31.196 2.215-2.207 4.223-4.613 5.998-7.187 3.113-4.144 5.289-8.915 6.377-13.983" fill="#37474F"/><path d="M512.917 177.03c-6.433 1.552-15.2 3.566-17.731 10.529-2.531 6.964-6.18 19.311-6.18 19.311 1.398 2.447 9.159 4.474 11.857 3.062l1.259-4.195v18.709c5.034 5.481 22.568 8.026 33.559 0v-34.957c0-5.593-3.105-12.305-11.676-12.794l-11.088.335Z" fill="#11B5E4"/><path d="m502.122 205.779 3.23-10.165-3.23 14.71v-4.545Z" fill="#E0E0E0"/><path d="M510.497 148.463c-.577-.064-1.161.003-1.708.197-.547.194-1.044.509-1.452.922-1.398 1.398-1.076 3.957 0 9.872l4.195.475-1.035-11.466ZM534.981 146.757c.882.01 1.757-.157 2.573-.489 1.287-.741 1.622.727.909 2-.466.911-1.158 1.688-2.01 2.256-.852.568-1.835.908-2.856.988 0-.182-1.202-3.286-1.202-3.286l2.586-1.469Z" fill="#263238"/><path d="M512.469 159.929c-.615.378-1.51-.825-2.279-1.622-.301-.347-.686-.612-1.118-.769-.431-.157-.896-.201-1.35-.129-.454.073-.881.261-1.242.545-.361.284-.644.656-.821 1.08-1.272 2.685 1.622 6.265 3.328 7.439.473.414 1.065.667 1.691.722.626.055 1.253-.09 1.791-.414l.447 10.277c.754 1.647 1.903 3.081 3.344 4.176 1.442 1.096 3.132 1.818 4.92 2.103 6.041.811 4.796-4.195 2.797-6.6v-3.734c1.511.319 3.064.395 4.6.224.783-.21 2.657-2.475 3.873-5.02 2.58-5.095 3.154-10.973 1.608-16.472-2.167-9.2-12.053-9.48-17.94-5.775-5.886 3.706-3.649 13.969-3.649 13.969Z" fill="#FFA8A7"/><path d="M512.469 160.978c-.308 0-1.496-1.971-2.279-2.671-1.077-.978.307-9.788.307-9.788-.297-.946-.356-1.952-.173-2.927.183-.975.602-1.891 1.222-2.666 2.126-2.237 6.236-1.859 9.243-1.957 3.699.014 7.362-.723 10.767-2.168 4.278-1.859 4.6-2.069 5.117-.195.414 1.548.465 3.171.15 4.742-.316 1.572-.989 3.049-1.967 4.318l-1.399 2.266s-1.3 1.09-5.285 1.58c-3.985.489-10.781-1.664-11.634-1.776-1.161-.154-1.398.965-2.028 4.027-.531 2.643-.978 7.201-2.041 7.215Z" fill="#263238"/><path d="m510.511 149.163-3.775-2.028c.121-.246.289-.467.495-.648.206-.181.446-.32.706-.409.26-.088.534-.124.808-.106.274.018.542.09.788.212.518.272.91.735 1.093 1.291.182.556.141 1.161-.115 1.688Z" fill="#263238"/><path d="M523.977 173.003c-2.573-.493-5.095-1.218-7.537-2.167-1.144-.604-2.083-1.533-2.699-2.671.296 1.142.819 2.212 1.539 3.146 1.398 1.832 8.697 3.174 8.697 3.174v-1.482Z" fill="#F28F8F"/><path d="M524.159 159.734c.004.301-.112.592-.321.81-.21.217-.496.343-.798.35-.15-.003-.299-.037-.437-.098-.137-.061-.262-.148-.366-.257-.103-.109-.185-.238-.239-.378-.054-.141-.08-.291-.077-.441-.003-.302.112-.593.321-.81.21-.218.496-.344.798-.351.151.004.299.037.437.098.138.061.262.149.366.258.104.109.185.237.239.378.054.14.08.29.077.441ZM522.97 155.497l-2.391 1.398c-.091-.162-.148-.341-.169-.525-.021-.185-.005-.372.047-.55.052-.179.139-.345.256-.489.117-.144.262-.264.426-.352.314-.161.677-.197 1.017-.101.34.096.631.317.814.619Z" fill="#263238"/><path d="m523.474 167.242 2.559.965c-.127.336-.377.61-.7.766-.323.156-.693.182-1.034.073-.173-.064-.332-.161-.467-.286-.135-.126-.244-.276-.321-.444-.077-.168-.119-.349-.126-.533-.006-.184.024-.368.089-.541Z" fill="#F28F8F"/><path d="m534.143 156.434-2.182-1.678c.219-.283.539-.472.892-.526.354-.055.716.028 1.01.232.149.11.274.249.369.408.095.159.157.336.183.519.026.184.015.371-.031.55-.047.179-.129.347-.241.495ZM533.471 159.412c.004.302-.111.593-.321.81-.209.217-.496.343-.797.351-.151-.004-.299-.037-.437-.098-.138-.061-.262-.149-.366-.258-.104-.109-.185-.238-.24-.378-.054-.141-.08-.29-.076-.441-.004-.302.112-.593.321-.81.209-.217.496-.343.798-.351.303.011.589.14.798.36.209.219.324.512.32.815Z" fill="#263238"/><path d="m528.2 159.272-1.049 6.656 3.677-.433-2.628-6.223Z" fill="#F28F8F"/><path d="m534.576 331.988-.224-1.007c.727.14 3.873 5.356 6.992 7.621 3.411 2.475 6.362 3.943 7.886 5.062 2.041 1.496-.909 4.558-5.929 4.838-2.489.126-6.991-.629-8.39-1.958-1.398-1.328-2.405-3.524-3.523-4.474-1.119-.951-3.342-1.79-4.111-3.007-.412-1.208-.56-2.491-.434-3.761 0-1.314.098-2.797.546-2.727l.167.755c1.297.662 2.74.984 4.195.937 1.217-.056 3.412-.321 2.825-2.279ZM527.067 270.058s-2.978-21.156-3.775-24.428c2.392-1.306 4.618-2.898 6.628-4.74-1.387 1.983-2.9 3.875-4.531 5.663l1.678 23.505ZM509.099 269.317s3.58 8.907 5.034 10.879c0 0-.364 6.795-.322 8.166l-1.873 1.636c-.049-3.075.232-6.145.839-9.159-1.644-3.695-2.877-7.558-3.678-11.522Z" fill="#263238"/><path d="M498.738 214.295s28.203 3.02 31.517 1.999c3.314-1.02 7.761-4.306 10.096-5.705 2.335-1.398 4.111-1.482 4.111-.909 0 .574-2.042 3.692-2.503 4.992-.462 1.301 2.195 1.301 5.705.49 3.51-.811 4.908-2.797 5.817-1.65.909 1.146-1.944 6.991-7.761 9.186-5.817 2.196-10.137.728-14.947.937-4.811.21-34.44 2.098-41.11 0-.176-1.069-.054-2.166.353-3.17s1.083-1.876 1.954-2.521c2.016-1.617 4.309-2.854 6.768-3.649ZM342.382 349.019c.07-.909 1.79-10.697 2.964-16.178l11.508 3.524-1.846 7.676-9.564 9.257c-.963-.181-1.82-.727-2.39-1.525-.571-.797-.811-1.784-.672-2.754Z" fill="#FFA8A7"/><path d="M367.607 266.157h5.593c4.128 0 8.086 1.639 11.005 4.558 2.918 2.919 4.558 6.877 4.558 11.005v39.655h-36.719V281.72c0-4.128 1.64-8.086 4.558-11.005 2.919-2.919 6.877-4.558 11.005-4.558Z" fill="#263238"/><path d="m398.048 328.45 5.439 9.97-8.474 7.243-7.746-12.291 10.781-4.922Z" fill="#F28F8F"/><path d="M377.633 306.218c5.397 0 11.34 2.013 13.381 6.25l8.39 17.394s-4.768 6.992-12.333 6.503l-9.438-30.147Z" fill="#455A64"/><path d="M381.995 478.724c1.858 2.484 3.946 4.788 6.237 6.879.367.296.66.674.853 1.105.237.727.545 2.475-2.685 3.188-1.638.359-3.333.361-4.971.007-1.639-.355-3.181-1.058-4.524-2.062-2.363-1.902-2.083-5.244-4.264-7.439-1.622-1.608-3.818-2.238-5.034-4.195-.853-1.398-.392-3.062.377-5.118.77-2.055 1.315-3.929 2.056-3.663l-.252 1.034c.769 1.636 5.593 2.671 7.956 1.888 1.272 2.863 2.691 5.659 4.251 8.376Z" fill="#263238"/><path d="M383.897 481.129c-.657-.769-1.3-1.552-1.902-2.405-1.236-2.059-2.343-4.193-3.314-6.39-.63-1.309-.74-2.808-.307-4.195l1.594-5.384-8.39-1.929-1.818 7.537c-.391 1.719.853 3.425 3.132 5.914 2.28 2.489 4.908 7.971 6.992 9.523 2.083 1.552 3.789 1.706 4.852 1.174 1.063-.531 1.328-1.021-.839-3.845Z" fill="#FFA8A7"/><path d="M359.427 483.464v-1.189c.475 1.399 2.629 7.355 5.901 10.348 2.614 2.363 6.166 5.117 7.061 7.76.895 2.643-4.936 3.678-7.369 3.244-3.247-.544-6.224-2.141-8.474-4.544-1.398-1.72-2.293-3.762-3.299-5.118-1.007-1.356-3.3-2.796-3.832-4.419-.168-1.461-.01-2.941.462-4.334.391-1.398.797-3.062 1.3-2.937v.979c1.197.933 2.678 1.426 4.195 1.399 1.146 0 4.069-.266 4.055-1.189Z" fill="#263238"/><path d="m367.691 494.706-2.363-2.097c-2.192-2.322-3.902-5.055-5.034-8.04-.573-1.379-.867-2.856-.867-4.349v-4.712h-8.25v7.872c.392 1.72 4.195 6.278 6.334 9.257 1.755 2.559 4.43 4.343 7.467 4.978 3.146.419 4.782-.56 2.713-2.909Z" fill="#FFA8A7"/><path d="M352.813 355.158c-6.39 13.982.238 63.216.238 63.216-.196 2.279-2.797 6.74-3.748 16.779-1.146 11.802 1.79 41.418 1.79 41.418 1.263.741 2.69 1.159 4.153 1.218 1.463.058 2.919-.245 4.237-.883 0 0 7.872-44.619 9.355-56.351l4.726-37.642 6.991 36.733c-1.871 2.879-3.418 5.955-4.614 9.173-1.664 5.188-5.034 34.748-5.034 34.748 1.137 1.039 2.497 1.805 3.975 2.239 1.478.434 3.036.524 4.555.263 0 0 16.15-40.55 16.877-48.828.433-4.964-6.81-64.069-6.81-64.069l-36.691 1.986Z" fill="#37474F"/><path d="m373.508 382.858 1.118-8.083s8.796-1.817 12.781-5.593c-2.752 3.226-6.35 5.618-10.389 6.908l-1.175 7.802 1.398 18.08-3.733-19.114Z" fill="#263238"/><path d="M364.167 306.595c-2.354.573-4.55 1.667-6.426 3.201-1.875 1.534-3.383 3.47-4.411 5.664-1.509 3.337-1.65 7.132-.391 10.571l5.635 16.542s-2.671 6.474-5.789 12.584c14.36 8.013 32.273 3.804 36.593-2.041.182-1.245-.07-6.838.28-13.186.363-6.782 1.3-14.444.238-18.625-1.986-7.788-5.691-15.087-13.06-15.087l-12.669.377Z" fill="#F03E3D"/><path d="M361.972 306.595c-4.894.685-12.081 1.678-14.57 13.312-2.489 11.634-3.23 15.898-3.23 15.898 1.596 1.566 3.497 2.787 5.585 3.585 2.088.799 4.319 1.159 6.552 1.058l2.531-8.949 3.132-24.904Z" fill="#455A64"/><path d="M364.754 316.411c-.844 0-1.681-.166-2.461-.489-.78-.324-1.49-.797-2.087-1.395-.597-.597-1.071-1.306-1.394-2.086-.323-.781-.49-1.617-.49-2.462v-18.723h6.432v25.155Z" fill="#263238"/><path d="M382.736 273.582c1.944 1.146 4.335 6.026 4.097 16.248-.196 8.669-3.006 10.822-4.418 11.438-1.413.615-4.125.237-6.768-.21v5.201s3.649 4.195 3.426 6.642c-.224 2.447-5.286 2.951-8.712.616-2.206-1.601-4.102-3.591-5.593-5.873v-12.585c-.278.341-.622.623-1.01.831-.388.207-.814.335-1.252.377-.439.041-.881-.004-1.301-.135-.421-.13-.811-.343-1.149-.625-2.922-1.944-3.034-6.74-1.328-8.39 1.706-1.65 5.355-1.175 6.04 1.202 3.456-.151 6.82-1.16 9.788-2.936 2.201-1.178 4.09-2.863 5.513-4.915 1.422-2.052 2.336-4.412 2.667-6.886Z" fill="#FFA8A7"/><path d="M377.157 287.662c.003.214-.058.424-.174.604-.116.18-.282.321-.478.407-.195.086-.412.113-.623.077-.211-.036-.406-.134-.562-.28-.156-.146-.265-.335-.315-.543-.049-.209-.036-.427.037-.627.074-.201.205-.376.377-.503.172-.127.378-.2.591-.211.147-.006.293.018.43.069.137.051.262.129.369.229.107.1.192.221.252.354.06.134.092.278.096.424Z" fill="#263238"/><path d="m377.451 295.003 2.531.811c-.045.171-.124.33-.232.469-.109.139-.244.254-.399.339-.154.085-.324.138-.499.156-.175.017-.352-.002-.52-.055-.34-.118-.622-.363-.786-.683-.164-.32-.198-.692-.095-1.037Z" fill="#F28F8F"/><path d="m386.092 284.306-2.195-1.524c.092-.149.214-.277.357-.378.144-.1.306-.17.478-.205.171-.036.348-.036.519 0 .172.035.334.105.478.206.294.209.496.523.564.877.068.355-.004.722-.201 1.024ZM385.589 286.865c.019.295-.079.585-.273.808-.194.222-.468.359-.762.381-.293.004-.577-.106-.791-.307-.213-.201-.341-.477-.356-.77-.007-.143.014-.286.062-.421.048-.136.122-.26.218-.366.096-.107.213-.193.342-.255.13-.062.27-.097.413-.104.143-.008.287.013.422.061s.259.122.366.219c.106.096.193.212.254.341.062.13.097.27.105.413Z" fill="#263238"/><path d="m380.443 286.25.182 6.558 3.454-1.077-3.636-5.481ZM375.647 301.058c-2.796-.364-8.529-2.014-9.424-4.279.356 1.15 1.059 2.161 2.013 2.895 1.706 1.468 7.411 3.132 7.411 3.132v-1.748Z" fill="#F28F8F"/><path d="M397.614 339.958c1.58-2.936 1.972-3.062 2.923-3.705.95-.644 6.697-1.51 9.088-1.72 2.797-.238 3.818.279 3.035 2.712-2.18 6.095-4.836 12.01-7.942 17.689-.756 1.007-.909 1.929-4.07 2.237-3.16.308-6.669.447-7.76.517-1.091.07-2.601.336-1.622-2.88 1.247-3.632 2.689-7.193 4.321-10.669 1.272-2.643 2.027-4.181 2.027-4.181Z" fill="#37474F"/><path d="M355.008 344.097s25.575 2.699 28.889 1.678 7.76-4.335 10.151-5.705 4.111-1.482 4.111-.923c0 .56-2.041 3.706-2.517 4.992-.475 1.287 2.21 1.3 5.705.489 3.496-.811 4.908-2.796 5.831-1.649.923 1.146-1.943 6.991-7.76 9.186-5.817 2.196-10.138.741-14.948.937-4.81.196-32.356 2.349-39.026.252-.176-1.069-.054-2.166.353-3.17.407-1.005 1.083-1.877 1.954-2.521 2.157-1.661 4.625-2.874 7.257-3.566Z" fill="#FFA8A7"/><path d="M356.854 337.525c1.097-2.971 2.031-6.001 2.797-9.075 0 0-.462 6.754-2.364 10.376l-.433-1.301Z" fill="#37474F"/><path d="m149.922 254.369-4.544 9.816 8.46 7.244 7.313-12.347-11.229-4.713Z" fill="#F28F8F"/><path d="M170.785 231.913c-5.398 0-11.34 2.028-13.382 6.251-2.041 4.222-8.39 17.408-8.39 17.408s4.769 6.992 12.333 6.488l9.439-30.147Z" fill="#37474F"/><path d="M194.192 387.668h-7.467v10.864h7.467v-10.864ZM167.94 374.225l-7.463.257.374 10.858 7.462-.256-.373-10.859Z" fill="#FFA8A7"/><path d="M193.688 281.594c0 7.131.923 53.219.923 53.219.182 2.041 2.098 5.831 1.678 13.703-.559 10.697-1.482 40.41-1.482 40.41s-3.496 3.468-8.39 0c0 0-6.767-40.382-8.096-50.981-1.174-9.243-3.146-34.37-3.146-34.37l-6.921 29.574s1.216 6.991 1.496 11.857-1.273 33.265-1.273 33.265c-1.209.755-2.596 1.181-4.021 1.235-1.425.054-2.839-.266-4.103-.927 0 0-5.984-41.417-6.753-45.85-.769-4.432 5.243-51.135 5.243-51.135h34.845Z" fill="#37474F"/><path d="M182.46 232.249h.112c3.203.805 6.045 2.659 8.072 5.267 2.027 2.607 3.124 5.818 3.114 9.121v34.957c-5.229 5.691-23.463 8.39-34.957 0v-36.355c0-5.803 3.23-12.795 12.137-13.312l11.522.322Z" fill="#02897A"/><path d="M184.977 202.507c.6-.067 1.207.003 1.776.204.569.201 1.086.528 1.51.957 1.399 1.398 1.119 4.125 0 10.263l-4.362.504 1.076-11.928ZM159.514 200.801c-.936.003-1.863-.182-2.726-.545-1.398-.769-1.692.755-.965 2.069.487.949 1.21 1.757 2.098 2.347.889.59 1.914.943 2.978 1.023 0-.181 1.244-3.397 1.244-3.397l-2.629-1.497Z" fill="#263238"/><path d="M182.922 214.435c.657.391 1.58-.853 2.377-1.692.312-.364.713-.641 1.163-.806.451-.164.936-.21 1.409-.132.473.077.918.275 1.293.573.375.299.666.69.847 1.134 1.398 2.796-1.692 6.516-3.454 7.732-.494.431-1.112.694-1.765.752-.653.058-1.308-.093-1.87-.43l-.462 10.683c-.783 1.714-1.978 3.207-3.478 4.346-1.501 1.14-3.26 1.89-5.121 2.184-6.278.853-4.978-4.321-2.923-6.866v-3.887c-1.565.34-3.175.425-4.768.252-.825-.224-2.796-2.587-4.041-5.23-1.398-2.964-3.761-8.222-1.664-17.129 2.252-9.578 12.585-9.872 18.653-6.013 6.069 3.86 3.804 14.529 3.804 14.529Z" fill="#FFA8A7"/><path d="M182.922 215.525c.335 0 1.566-2.041 2.377-2.796 1.118-1.021-.322-10.236-.322-10.236s1.133-3.481-1.076-5.803c-2.21-2.321-6.502-1.929-9.635-2.041-3.843.023-7.651-.743-11.186-2.251-4.446-1.93-4.782-2.154-5.327-.21-.432 1.61-.486 3.298-.159 4.933.328 1.634 1.028 3.171 2.046 4.491l2.21.811s1.188 1.063 5.341 1.566c3.83.284 7.677.214 11.494-.209 1.202-.168 1.398.992 2.111 4.195.56 2.796 1.035 7.536 2.126 7.55Z" fill="#263238"/><path d="m184.963 203.234 3.929-2.111c-.124-.264-.301-.5-.52-.694-.219-.193-.474-.34-.752-.432-.277-.091-.57-.125-.861-.1-.291.025-.573.109-.831.247-.526.293-.92.777-1.1 1.353-.179.575-.131 1.197.135 1.737Z" fill="#263238"/><path d="M170.952 228.026c2.68-.503 5.306-1.257 7.845-2.251 1.194-.627 2.17-1.602 2.796-2.797-.305 1.187-.847 2.3-1.594 3.272-1.482 1.902-9.061 3.3-9.061 3.3l.014-1.524Z" fill="#F28F8F"/><path d="M172.351 212.98c.005.232.079.457.212.647.133.189.319.335.535.42.216.084.452.102.678.053.227-.05.433-.165.594-.332.161-.167.269-.377.31-.605.042-.228.015-.463-.077-.676-.091-.213-.244-.394-.438-.52-.195-.126-.422-.192-.654-.189-.313.007-.61.138-.827.363-.217.225-.337.527-.333.839ZM173.581 208.59l2.503 1.398c.174-.343.21-.74.1-1.109-.109-.369-.355-.683-.687-.876-.164-.09-.344-.146-.53-.165-.186-.019-.373-.001-.552.054-.178.055-.344.145-.487.265-.144.119-.261.267-.347.433Z" fill="#263238"/><path d="m172.435 220.88-2.657 1.007c.058.178.151.343.274.484.123.141.273.256.441.338.169.083.352.13.539.14.186.01.374-.017.55-.081.36-.141.651-.417.811-.77.159-.353.174-.754.042-1.118Z" fill="#F28F8F"/><path d="m161.962 209.555 2.251-1.762c-.108-.153-.246-.283-.406-.382-.159-.098-.337-.164-.522-.193-.185-.028-.374-.02-.556.026-.182.046-.352.128-.502.241-.302.245-.498.596-.547.982-.05.385.051.775.282 1.088ZM162.661 212.659c-.004.313.116.614.333.839.217.226.514.356.827.363.317-.007.617-.139.837-.367.22-.227.341-.533.338-.849.018-.164.001-.33-.05-.487-.05-.158-.133-.302-.243-.425-.11-.123-.245-.221-.396-.289-.151-.067-.314-.102-.479-.102-.165 0-.328.035-.479.102-.15.068-.285.166-.395.289-.111.123-.194.267-.244.425-.051.157-.067.323-.049.487v.014Z" fill="#263238"/><path d="m168.603 211.554-.391 7.005-3.65-1.244 4.041-5.761Z" fill="#F28F8F"/><path d="M186.725 394.841v-1.077c-.713.308-2.377 6.642-5.327 9.341-2.363 2.139-5.594 4.628-6.391 6.991-.797 2.363 4.475 3.86 6.67 3.468 2.559-.447 6.992-2.251 8.096-3.915 1.105-1.664 1.636-4.125 2.531-5.356.895-1.23 2.993-2.586 3.482-3.999.144-1.321-.004-2.657-.434-3.915-.349-1.314-.713-2.796-1.16-2.643v.811c-1.062.838-2.381 1.283-3.734 1.259-1.076.084-3.747-.126-3.733-.965ZM160.787 383.026c-.392 0-.713.559-1.566 1.482-1.273 1.295-2.758 2.364-4.391 3.16-2.796 1.398-8.222 3.552-10.683 4.656-1.524.699-1.398 2.545.126 3.608 1.524 1.063 5.425 1.818 10.026.783 2.503-.559 5.775-2.867 7.83-2.797 2.056.07 5.929.098 7.453-.951 1.524-1.048.923-3.299.489-5.229-.433-1.93-1.146-5.314-1.845-5.174v.657c-.895 1.399-5.468 1.916-7.439.923v-1.118Z" fill="#263238"/><path d="M150.803 265.668c-1.58-2.951-1.971-3.076-2.922-3.72-.951-.643-6.698-1.51-9.089-1.706-2.797-.237-3.817.28-3.034 2.699 2.165 6.097 4.802 12.015 7.886 17.702.755.993.909 1.916 4.069 2.224 3.16.307 6.67.447 7.76.517 1.091.07 2.601.336 1.622-2.88-1.249-3.631-2.691-7.193-4.32-10.669-1.147-2.643-1.972-4.167-1.972-4.167Z" fill="#37474F"/><path d="M208.119 274.533c-.07-.923-2.797-11.354-4.195-16.178l-10.236 3.523 2.406 7.593 9.004 9.327c.955-.188 1.801-.735 2.363-1.529.563-.794.798-1.774.658-2.736Z" fill="#FFA8A7"/><path d="M196.052 269.471s-28.218 3.02-31.532 2c-3.314-1.021-7.76-4.335-10.151-5.705-2.391-1.371-4.111-1.483-4.111-.909 0 .573 2.041 3.691 2.517 4.978.475 1.286-2.209 1.3-5.705.489s-4.908-2.797-5.831-1.65c-.923 1.147 1.944 6.991 7.76 9.187 5.817 2.195 10.138.741 14.948.937 4.81.195 34.44 2.097 41.11 0 .177-1.067.055-2.163-.353-3.165-.407-1.002-1.083-1.871-1.955-2.512-1.997-1.607-4.265-2.843-6.697-3.65Z" fill="#FFA8A7"/><path d="M184.823 233.046c4.433 1.468 13.228 2.209 16.067 11.801 2.838 9.592 4.265 15.815 4.265 15.815-1.678 2.237-8.39 4.824-11.466 3.859l-8.866-31.475Z" fill="#455A64"/><path d="m193.689 264.521-3.035-10.767 3.035 15.158v-4.391ZM130.039 287.145c-.14.182-1.329 2.153-1.329 2.153l-5.467 7.831-5.327 7.984c-.168.243-.409.427-.688.525-.279.098-.581.105-.865.02l-.363-.125c-1.846-.686-4.614-1.846-8.292-3.538-2.95-1.398-2.797-1.804-2.797-2.307-.038-.4-.038-.803 0-1.203.602-1.146 2.461-4.013 4.964-7.634 4.447-6.46 6.586-9.327 7.915-11.187.189-.271.469-.466.789-.551.32-.084.66-.053.959.09 2.391.797 7.243 2.88 9.788 3.915h.111c1.371.741.616 3.971.602 4.027Z" fill="#37474F"/><path d="m130.178 286.893-1.398 2.405-5.341 7.985-5.593 7.788c-.168.243-.409.427-.688.525-.279.098-.581.105-.865.02l-.363-.125c-1.846-.686-4.614-1.846-8.292-3.538-2.95-1.398-2.796-1.804-2.796-2.307-.039-.4-.039-.803 0-1.203 2.796 1.231 11.647 5.426 11.941 5.272.699-.336 6.698-9.956 9.886-14.864 1.594-2.447 2.307-3.482 2.796-4.321.09-.1.157-.218.196-.347.04-.128.05-.264.032-.397-.019-.134-.066-.261-.14-.374-.073-.113-.17-.208-.283-.28h-.112c.314.166.585.402.791.691.206.289.342.622.397.973.153.335.217.704.188 1.07-.029.367-.152.721-.356 1.027Z" fill="#37474F"/><path opacity=".1" d="m130.178 286.893-1.398 2.405-5.341 7.985-5.593 7.788c-.168.243-.409.427-.688.525-.279.098-.581.105-.865.02l-.363-.125c-1.846-.686-4.614-1.846-8.292-3.538-2.95-1.398-2.796-1.804-2.796-2.307-.039-.4-.039-.803 0-1.203 2.796 1.231 11.647 5.426 11.941 5.272.699-.336 6.698-9.956 9.886-14.864 1.594-2.447 2.307-3.482 2.796-4.321.09-.1.157-.218.196-.347.04-.128.05-.264.032-.397-.019-.134-.066-.261-.14-.374-.073-.113-.17-.208-.283-.28h-.112c.314.166.585.402.791.691.206.289.342.622.397.973.153.335.217.704.188 1.07-.029.367-.152.721-.356 1.027Z" fill="#000"/><path d="m117.86 281.496 9.815 4.111-10.459 15.549-9.76-4.489 10.404-15.171Z" fill="#FAFAFA"/><path d="M115.105 335.679c2.685-.769 6.74-10.752 9.788-22.078 3.048-11.327 4.656-13.829 4.754-17.395.098-3.566-.154-8.25-.154-8.25l-5.313 7.761c-.231-1.498-.703-2.947-1.398-4.293-.686-1.398-1.972-2.503-3.021-1.664-.559.447.923 2.363.602 6.642-.027 1.705.142 3.408.503 5.075l-9.872 23.911 4.111 10.291Z" fill="#FFA8A7"/><path d="M75.3797 286.096c-3.1182-.88-5.7609.783-7.2291 5.747-2.5737 9.346-4.4433 18.872-5.5932 28.497-.4194 3.454-.8949 7.649 2.4051 7.971 2.5169.251 9.788-1.147 11.0604-2.405 1.7059-1.65 1.3983-8.306 1.3983-8.306h-3.7754s.811-5.244 1.0487-6.838c.839-5.355 2.0835-12.109 2.0835-12.109l-1.3983-12.557Z" fill="#F28F8F"/><path d="m93.6833 281.188-1.2725 11.201-11.0464 1.286 1.594-14.864 10.7249 2.377Z" fill="#FFA8A7"/><path d="M70.0383 264.843c.9089-10.348 6.516-14.599 10.8507-15.633 8.7533-2.056 17.3947.881 20.974 6.991.82 1.913 1.242 3.973 1.242 6.055 0 2.081-.422 4.141-1.242 6.054-1.9014 4.335-31.7827-3.495-31.7827-3.495" fill="#263238"/><path d="M102.409 270.408s1.58 4.265 1.16 4.586c-.659.238-1.354.361-2.055.364l.895-4.95Z" fill="#FFA8A7"/><path d="M97.6962 256.928c2.0835 1.79 5.5928 5.034 4.6568 13.983-1.035 9.257-3.2725 11.76-4.7826 12.655-1.0068.601-5.4673-.448-7.5368-1.664-2.5728-1.524-8.2778-5.454-10.0117-10.753-2.0554-6.237-1.0207-13.675 3.4818-15.619 2.291-.986 4.7944-1.374 7.2765-1.13 2.482.245 4.8615 1.114 6.916 2.528Z" fill="#FFA8A7"/><path d="M100.269 257.166c.045 2.475-.4687 4.928-1.5024 7.177-1.0337 2.248-2.5609 4.235-4.4681 5.813 0 0-1.3004-3.37-4.1949-2.601-2.8944.769-2.7966 4.587-.7271 6.656.5365.592 1.2308 1.018 2.0011 1.228.7703.211 1.5848.197 2.3476-.039-.4127 2.645-1.6509 5.092-3.5377 6.991-3.011.692-6.1563.522-9.0748-.492s-5.492-2.831-7.4249-5.241c-6.3902-7.677-4.5025-19.87 5.4812-23.463 3.5301-1.417 7.3912-1.795 11.1292-1.092 3.7381.704 7.1974 2.46 9.9708 5.063ZM80.036 449.696l4.7682 6.627c-2.172.983-4.5384 1.461-6.9215 1.399-4.2648.168-5.4394-1.231-5.5932-1.566-.7271-1.552.4055-4.335.7131-6.726l7.0334.266Z" fill="#263238"/><path d="M84.5104 453.122s5.775-.378 9.788-.881c4.0131-.504 7.1596 1.398 6.2226 3.09-.9371 1.692-3.1463 3.02-6.5721 4.195-2.9225.992-6.4461 1.706-9.5084 2.614-3.0622.909-5.1457 2.028-6.9215 1.399-1.9855-.685-2.7965-1.482-2.6707-2.923.4331-2.053.9698-4.083 1.608-6.082l8.0541-1.412Z" fill="#263238"/><path d="M72.2896 443.012s.7131 6.013.769 7.313c.0559 1.3 5.8728 1.706 6.9914-.657l.1818-7.355-7.9422.699Z" fill="#F28F8F"/><path d="m78.1483 446.717-2.0275 9.131s-.2098 1.105 4.5584 1.818c4.7681.713 12.207-2.489 13.4794-3.132 1.2725-.644 1.3983-1.944-3.258-1.692-4.6563.251-6.3202.279-6.3202.279l1.5241-4.055-7.9562-2.349Z" fill="#FFA8A7"/><path d="M72.2894 324.479c-3.9851 6.195-7.7605 11.648-8.5715 18.612-1.7059 14.71 3.8873 31.517 5.0758 42.396-2.261 3.095-3.5683 6.784-3.7614 10.613 0 4.502 7.2571 46.912 7.2571 46.912s5.2715 1.608 7.9283-.699l4.9919-78.024-2.6288-9.495-10.2914-30.315Z" fill="#455A64"/><path d="m85.2097 364.288-2.6288-9.494c-4.9476-1.287-9.7222-3.164-14.2205-5.593 0 0 2.6986 4.894 10.4032 7.579l4.0131 12.207.3495 27.965 2.0835-32.664Z" fill="#37474F"/><path d="M72.2895 324.479c-2.1254 3.468-7.2292 9.425-6.1385 15.13 1.3144 6.991 5.0338 11.787 16.4298 15.185l10.6829 38.691s-5.5931 5.215-7.2571 10.165c-1.6639 4.95-7.8583 43.067-7.8583 43.067s1.9016 3.105 7.9142 2.349c0 0 20.9745-47.807 22.3725-50.883 1.789-3.149 2.418-6.825 1.776-10.389-.671-5.006-7.803-59.847-7.803-59.847l-30.1185-3.468Z" fill="#455A64"/><path d="M70.3459 289.564c.4286-1.14 1.2363-2.099 2.2877-2.715 1.0514-.616 2.2826-.852 3.4872-.669 7.4529 2.028 19.0446 4.699 21.2399 5.342 0 0-.9927 14.36 7.5923 19.422-.405 3.202-2.586 17.003-2.586 17.003s-10.3197 5.006-18.8073 2.545c-8.4876-2.461-11.3401-6.013-11.3401-6.013l4.1949-6.921c-.9089-2.251-4.4186-9.9-6.6838-17.003-.786-3.653-.5735-7.449.6152-10.991Z" fill="#FFB900"/><path d="M75.3796 314.831c3.5302 2.124 7.2296 3.952 11.0605 5.467-3.4819-.09-6.8856-1.051-9.8999-2.796l-1.1606-2.671ZM104.772 309.867c-3.05-1.398-5.5596-3.755-7.1455-6.712.2572 2.272 1.0359 4.454 2.2753 6.375 1.2392 1.921 2.9062 3.529 4.8702 4.7v-4.363Z" fill="#E0E0E0"/><path d="M97.4306 291.522c4.6844 1.398 7.5924 1.845 10.1234 4.111 3.328 2.992 6.768 19.911 7.467 23.407 1.217 6.055 2.559 12.347 1.245 15.171-.951 2.042-6.125 3.566-8.39-3.034-.476-1.398-.573-2.041-.993-3.3-2.139-6.32-5.355-18.401-5.355-18.401s-6.3346-3.496-4.0974-17.954Z" fill="#FFA8A7"/><path d="M74.7225 253.195c-1.664.965-4.6703 1.902-6.544 10.641-1.5254 7.331-2.4328 14.777-2.7127 22.26.0699 2.713 5.691 10.25 17.5485 9.537 11.8574-.713 16.1641-7.663 16.1641-7.663s-5.8308-2.377-5.3694-12.584c0 0-2.0554 4.041-7.6905 2.013-5.6351-2.027-11.396-24.204-11.396-24.204Z" fill="#263238"/></svg>