<svg width="540" height="475" fill="none" xmlns="http://www.w3.org/2000/svg"><path d="M79.0544 428.856c105.4056 60.594 276.3136 60.594 381.7196 0 105.406-60.593 105.406-158.837 0-219.443-105.406-60.607-276.266-60.594-381.7196 0-105.4541 60.593-105.3577 158.85 0 219.443Z" fill="#F5F5F5"/><path d="m49.6719 329.485-34.2636-21.762v-80.871l34.2636 21.776v80.857Z" fill="#E0E0E0"/><path d="m49.6719 248.628 48.9548-31.099v80.857l-48.9548 31.099v-80.857Z" fill="#EBEBEB"/><path d="m98.6266 217.529-48.9547 31.099-34.2636-21.776 48.9548-31.099 34.2635 21.776Z" fill="#F5F5F5"/><path d="m54.577 251.732 39.1566-24.88.9039.571v29.958L55.4688 282.26l-.9039-.57.0121-29.958Z" fill="#E0E0E0"/><path d="m55.4688 252.315 39.1686-24.893v29.959L55.4688 282.26v-29.945Z" fill="#F5F5F5"/><path d="m70.8228 247.633 6.6647-4.23c.8557-.557 1.5547-.305 1.5547.557-.0621.528-.2348 1.033-.5046 1.474-.2698.442-.6293.809-1.0501 1.072l-6.6647 4.231c-.8677.557-1.5667.305-1.5667-.557.0625-.53.2367-1.036.5088-1.478.272-.442.6343-.808 1.0579-1.069ZM53.6731 289.633l39.1566-24.879v29.959l.9039.57-39.1687 24.879-.8918-.57v-29.959Z" fill="#E0E0E0"/><path d="m54.5649 290.204 39.1687-24.879v29.958l-39.1687 24.88v-29.959Z" fill="#F5F5F5"/><path d="m69.9191 285.536 6.7249-4.217c.8678-.557 1.5668-.305 1.5668.557-.0625.529-.2367 1.035-.5088 1.477-.272.443-.6344.809-1.058 1.069l-6.6647 4.231c-.8677.557-1.5667.305-1.5667-.557.0542-.526.2184-1.031.4798-1.475.2614-.444.6128-.816 1.0267-1.085ZM49.6719 243.96l-34.2636-21.776v-80.858l34.2636 21.763v80.871Z" fill="#E0E0E0"/><path d="m49.6719 163.089 48.9548-31.099v80.871L49.6719 243.96v-80.871Z" fill="#EBEBEB"/><path d="m98.6266 131.99-48.9547 31.099-34.2636-21.763 48.9548-31.099 34.2635 21.763Z" fill="#F5F5F5"/><path d="m54.5649 166.205 39.1687-24.879.9039.57v29.959l-39.1687 24.879-.9039-.583v-29.946Z" fill="#E0E0E0"/><path d="m70.8228 162.094 6.6527-4.23c.8677-.544 1.5667-.292 1.5667.57-.0643.529-.2392 1.034-.5111 1.476-.2719.442-.6332.808-1.0556 1.07l-6.6527 4.231c-.8677.543-1.5667.305-1.5667-.557.0634-.531.2379-1.039.5098-1.483.2719-.444.6337-.813 1.0569-1.077ZM53.6731 204.108l39.1566-24.879v29.945l.9039.57-39.1687 24.879-.8918-.57v-29.945Z" fill="#E0E0E0"/><path d="m54.5649 204.678 39.1687-24.879v29.945l-39.1687 24.879v-29.945Z" fill="#F5F5F5"/><path d="m69.919 199.997 6.725-4.231c.8557-.543 1.5667-.291 1.5667.571-.0678.527-.2442 1.031-.5157 1.472-.2715.441-.631.809-1.051 1.074l-6.725 4.191c-.8677.543-1.5667.291-1.5667-.557.0687-.524.2456-1.024.5173-1.461.2716-.436.6306-.799 1.0494-1.059ZM54.5649 166.205l39.1687-24.879v29.945l-39.1687 24.88v-29.946Z" fill="#E0E0E0"/><path d="m113.318 156.127-21.4403-13.62v26.391l21.4403 13.606v-26.377Z" fill="#E0E0E0"/><path d="M69.2561 200.421v-37.332l8.4002-5.358 1.3859 2.255L103.52 144.43v34.215l-34.2639 21.776Z" fill="#EBEBEB"/><path d="m69.2561 200.421 2.4465-32.664 34.2634-21.763-2.446 32.651-34.2639 21.776Z" fill="#F5F5F5"/><path d="m74.1492 181.006-18.6804-11.87v26.391l18.6804 11.856v-26.377Z" fill="#EBEBEB"/><path d="m74.1492 178.645 39.1688-24.879v29.945L74.1492 208.59v-29.945Z" fill="#F5F5F5"/><path d="m89.5034 173.964 6.6526-4.231c.8678-.544 1.5668-.292 1.5668.57-.0652.529-.2405 1.034-.5123 1.476-.2718.441-.6327.808-1.0545 1.071l-6.6526 4.23c-.8678.544-1.5668.292-1.5668-.557.0635-.531.238-1.038.5098-1.482.2719-.444.6337-.813 1.057-1.077ZM74.1493 178.645l-1.3016-.823v29.946l1.3016.822v-29.945Z" fill="#E0E0E0"/><path d="m72.8477 177.823 39.1563-24.893 1.314.836-39.1687 24.879-1.3016-.822Z" fill="#EBEBEB"/><path d="m454.471 280.496-34.276-21.776v-80.858l34.276 21.763v80.871Z" fill="#E0E0E0"/><path d="m454.471 199.626 48.954-31.1v80.871l-48.954 31.099v-80.87Z" fill="#EBEBEB"/><path d="m503.426 168.526-48.955 31.099-34.276-21.762 48.967-31.113 34.264 21.776Z" fill="#F5F5F5"/><path d="m459.364 202.742 39.168-24.88.904.571-.012 29.945-39.156 24.879-.904-.57v-29.945Z" fill="#E0E0E0"/><path d="m460.268 203.312 39.168-24.879-.012 29.945-39.156 24.88v-29.946Z" fill="#F5F5F5"/><path d="m475.622 198.631 6.653-4.231c.867-.543 1.566-.291 1.566.557-.063.531-.238 1.039-.509 1.483-.272.444-.634.813-1.057 1.077l-6.653 4.23c-.868.544-1.567.292-1.567-.557.064-.53.238-1.038.51-1.482.272-.444.634-.813 1.057-1.077ZM458.46 240.644l39.169-24.892v29.958l.904.57-39.169 24.88-.904-.571v-29.945Z" fill="#E0E0E0"/><path d="m459.364 241.214 39.168-24.879v29.945l-39.168 24.879v-29.945Z" fill="#F5F5F5"/><path d="m474.718 236.533 6.665-4.231c.855-.544 1.554-.292 1.554.557-.063.529-.237 1.035-.506 1.479-.27.444-.628.813-1.048 1.081l-6.665 4.23c-.868.544-1.567.292-1.567-.57.066-.529.241-1.033.513-1.475.271-.442.632-.808 1.054-1.071Z" fill="#E0E0E0"/><path d="M128.467 365.014s.133-21.033-11.919-36.801c-10.666-13.965-16.342-22.824-12.98-26.909 3.362-4.084 10.594-5.066 20.344 6.233 9.75 11.3 10.509 42.598 9.159 49.679l-4.604 7.798Z" fill="#02897A"/><path opacity=".2" d="M128.467 365.014s.133-21.033-11.919-36.801c-10.666-13.965-16.342-22.824-12.98-26.909 3.362-4.084 10.594-5.066 20.344 6.233 9.75 11.3 10.509 42.598 9.159 49.679l-4.604 7.798Z" fill="#000"/><path d="M130.492 342.402c-.137.001-.271-.05-.378-.144-.107-.094-.182-.225-.213-.373-4.218-21.709-15.04-33.711-21.127-38.937-.126-.107-.208-.265-.228-.439-.02-.174.023-.35.12-.489.1-.139.245-.23.406-.252.16-.023.321.025.45.133 6.206 5.305 17.258 17.585 21.56 39.706.018.084.02.172.007.257-.014.086-.043.167-.086.24-.042.073-.098.136-.163.185-.065.049-.138.083-.216.1l-.132.013Z" fill="#fff"/><path d="m128.009 372.826-4.905 3.116c-.523-1.573-1.406-2.972-2.562-4.061-1.157-1.089-2.549-1.833-4.042-2.159-5.363-1.326-10.931-1.1-14.692-6.219-3.7598-5.119.82-10.689 0-14.456-.819-3.766-1.349-4.854-8.0743-8.62-6.725-3.766-9.3764-10.013-4.3146-14.243 5.0618-4.231 13.2569-1.128 18.2229 2.652 4.411 3.316 8.605 4.191 13.534 4.867 4.929.677 12.956 3.687 11.726 16.286-.805 7.798-2.447 15.464-4.893 22.837Z" fill="#02897A"/><path d="M109.184 356.275c-.128-.001-.253-.047-.357-.13-.104-.083-.181-.2-.221-.334-.046-.169-.03-.351.044-.507.075-.156.201-.274.353-.329.434-.146 10.847-3.779 15.27.12.11.114.177.269.188.435.01.165-.036.329-.13.459-.094.131-.229.217-.378.243-.149.026-.301-.011-.427-.103-3.905-3.448-14.053.08-14.161.119l-.181.027Z" fill="#fff"/><path d="M128.551 371.817c-.146.001-.288-.058-.397-.166-.109-.108-.178-.257-.193-.417-2.688-27.93-33.2633-41.178-33.5646-41.311-.0747-.031-.1431-.078-.2012-.138-.0581-.06-.1048-.132-.1373-.213-.0325-.08-.0502-.166-.0521-.254-.0019-.088.0121-.175.0411-.257.0593-.161.1723-.29.3159-.362.1435-.071.3066-.08.4554-.023.3254.146 31.5758 13.673 34.3358 42.438.017.174-.029.349-.129.485-.099.137-.243.225-.401.245l-.073-.027Z" fill="#fff"/><path d="M428.318 354.485c.133-.465 5.303-29.747 0-50.515-4.82-19.044-11.111-26.073-20.078-27.624-8.967-1.552-12.859 5.556-8.099 15.185 4.761 9.628 16.222 22.399 19.03 43.91 1.205 8.858 2.121 16.55 2.121 16.55l7.026 2.494Z" fill="#02897A"/><path opacity=".2" d="M428.318 354.485c.133-.465 5.303-29.747 0-50.515-4.82-19.044-11.111-26.073-20.078-27.624-8.967-1.552-12.859 5.556-8.099 15.185 4.761 9.628 16.222 22.399 19.03 43.91 1.205 8.858 2.121 16.55 2.121 16.55l7.026 2.494Z" fill="#000"/><path d="M425.293 337.668c-.079-.005-.156-.027-.228-.065-.071-.038-.135-.091-.188-.157-.052-.065-.093-.141-.118-.223-.026-.083-.037-.17-.032-.257 1.205-23.713-5.833-44.878-18.452-55.263-.127-.105-.212-.262-.235-.436-.022-.174.019-.351.115-.492.098-.138.24-.228.397-.253.158-.025.318.018.447.121 12.931 10.609 20.186 32.252 18.921 56.402-.009.174-.08.336-.197.453-.118.116-.272.178-.43.17Z" fill="#fff"/><path d="M442.19 369.736c-.687-5.451 2.157-13.62 8.918-15.556 6.761-1.937 9.774-6.207 7.34-10.875-2.435-4.668-1.868-8.952 4.266-10.888 6.135-1.936 11.51-5.305 7.979-12.44-2.567-5.159-3.134-8.501 3.157-18.659 5.219-8.435.952-13.381-5.58-12.453-6.532.928-10.569 9.495-14.655 10.928-4.086 1.432-5.026-6.207-10.413-2.785-5.387 3.421-5.062 12.187-5.23 18.301-.169 6.114-.531 7.493-5.4 6.75-4.869-.742-9.641.133-9.533 13.09.085 11.113 5.472 24.879 5.472 24.879l13.679 9.708Z" fill="#02897A"/><path d="M433.646 361.447h-.061c-.161-.02-.308-.109-.41-.248-.102-.139-.149-.317-.132-.495 3.399-33.406 29.455-61.588 36.252-67.303.128-.108.289-.155.449-.131.159.024.303.116.401.257.097.14.14.318.118.493-.021.175-.105.334-.233.442-6.713 5.636-32.431 33.446-35.782 66.388-.017.163-.088.314-.199.424-.111.109-.254.171-.403.173Z" fill="#fff"/><path d="M445.528 325.733c-.122-.001-.241-.041-.342-.117-.101-.076-.179-.182-.224-.307-.052-.167-.043-.35.024-.51.068-.161.188-.287.337-.352 9.714-3.979 20.73-2.096 21.2-2.016.156.029.295.125.388.267.092.141.13.317.106.489-.03.171-.117.324-.244.427-.128.103-.286.15-.443.13-.109 0-11.172-1.91-20.585 1.949-.07.026-.143.04-.217.04ZM436.875 345.811c-.085-.001-.168-.021-.245-.06-.077-.039-.145-.095-.201-.165-4.04-5.177-6.778-11.427-7.942-18.129-.012-.086-.008-.174.01-.259.019-.085.053-.164.1-.235.047-.07.107-.129.174-.174.068-.045.144-.075.222-.088.078-.013.158-.009.235.012.077.021.15.058.214.11.063.051.117.116.158.191.041.075.068.158.08.244 1.152 6.438 3.787 12.443 7.653 17.439.075.098.124.217.14.344.016.127-.001.256-.049.373-.048.117-.125.216-.222.286-.097.071-.211.109-.327.111Z" fill="#fff"/><path d="M128.009 167.571v205.267l190.926-121.293-.012-186.6075-141.959 90.1935-4.905-15.556-44.05 27.996Z" fill="#22343D"/><path d="m128.009 372.838 9.786-186.608L328.721 64.9375l-9.786 186.6075-190.926 121.293Z" fill="#E0E0E0"/><path d="m128.009 372.838 14.679-183.491L333.614 68.0413 318.935 251.545 128.009 372.838Z" fill="#22343D"/><path d="M157.38 186.231v205.28l190.926-121.306V83.5978L206.334 173.792l-4.893-15.557-44.061 27.996Z" fill="#F03E3D"/><path d="m157.38 391.511 9.786-186.62L358.092 83.5978l-9.786 186.6072L157.38 391.511Z" fill="#E0E0E0"/><path d="m157.38 391.511 14.679-183.504L362.985 86.7008 348.306 270.205 157.38 391.511Z" fill="#F03E3D"/><path d="M318.887 456.826c-34.276-21.776-66.068-45.448-80.579-73.219l44.11-28.022 36.469 101.241Z" fill="#E0E0E0"/><path d="M191.643 208.007v205.267l190.926-121.293V105.373l-141.971 90.194-4.893-15.556-44.062 27.996Z" fill="#02897A"/><path opacity=".2" d="M191.643 208.007v205.267l190.926-121.293V105.373l-141.971 90.194-4.893-15.556-44.062 27.996Z" fill="#000"/><path d="M246.648 268.693c-.482 0-.554-.61-.554-.968V92.6681c.038-.679.219-1.339.529-1.9281.309-.589.739-1.0911 1.254-1.4669L385.679 1.74491c.188-.12952.404-.20267.626-.2122.482 0 .555.61005.555.96812V177.557c-.038.681-.219 1.344-.528 1.935-.31.591-.74 1.096-1.256 1.474l-137.801 87.528c-.191.123-.406.191-.627.199Z" fill="#fff"/><path d="M386.233 2.14321c.01.09696.01.1948 0 .29176V177.491c-.04.565-.193 1.113-.45 1.604-.256.491-.609.912-1.032 1.234l-137.802 87.529-.241.119c-.016-.096-.016-.195 0-.292V92.6288c.042-.5623.196-1.1074.452-1.596.257-.4885.609-.9082 1.03-1.2288L385.992 2.27583c.076-.0585.162-.09913.253-.11936l-.012-.01326Zm.084-1.31292c-.328.010752-.648.11592-.928.30503L247.588 88.6635c-.606.4379-1.11 1.0259-1.472 1.7168-.362.6909-.572 1.4655-.613 2.2618V267.698c0 1.035.47 1.632 1.205 1.632.329-.01.649-.115.928-.305l137.801-87.529c.609-.434 1.115-1.022 1.477-1.713.363-.692.571-1.468.608-2.265V2.4615c0-1.03442-.47-1.644472-1.205-1.63121Z" fill="#02897A"/><path opacity=".7" d="M386.233 2.14321c.01.09696.01.1948 0 .29176V177.491c-.04.565-.193 1.113-.45 1.604-.256.491-.609.912-1.032 1.234l-137.802 87.529-.241.119c-.016-.096-.016-.195 0-.292V92.6288c.042-.5623.196-1.1074.452-1.596.257-.4885.609-.9082 1.03-1.2288L385.992 2.27583c.076-.0585.162-.09913.253-.11936l-.012-.01326Zm.084-1.31292c-.328.010752-.648.11592-.928.30503L247.588 88.6635c-.606.4379-1.11 1.0259-1.472 1.7168-.362.6909-.572 1.4655-.613 2.2618V267.698c0 1.035.47 1.632 1.205 1.632.329-.01.649-.115.928-.305l137.801-87.529c.609-.434 1.115-1.022 1.477-1.713.363-.692.571-1.468.608-2.265V2.4615c0-1.03442-.47-1.644472-1.205-1.63121Z" fill="#fff"/><path d="m260.182 99.3129 48.955-31.099v62.1981l-48.955 31.099V99.3129Z" fill="#02897A"/><path opacity=".8" d="m260.182 99.3129 48.955-31.099v62.1981l-48.955 31.099V99.3129Z" fill="#11B5E4"/><path d="M301.797 83.7173v18.6997l-1.542.941v-5.7158c0-3.1563-2.326-4.2305-5.219-2.4004l-20.741 13.1952c-2.88 1.831-5.219 5.875-5.219 9.032v5.716l-1.53 1.007v-18.659l34.251-21.8157Z" fill="#fff"/><path d="M292.373 131.327c-2.507 1.591-4.544-.08-4.544-3.753V97.6418l-6.303 3.7662v30.171c0 3.66-2.037 7.957-4.544 9.509l-4.555 2.891v1.989l24.477-15.556v-1.976l-4.531 2.891Z" fill="#fff"/><path d="M318.887 65.1506c0 1.724 1.41 2.2147 3.133 1.1273l47.63-30.3034c.845-.5271 1.567-1.2623 2.111-2.1481.544-.8859.893-1.8982 1.022-2.9577 0-1.7108-1.41-2.2147-3.133-1.114l-47.593 30.237c-.859.5261-1.594 1.2672-2.145 2.1634-.55.8961-.901 1.9223-1.025 2.9955ZM318.887 83.7171c0 1.724 1.41 2.228 3.133 1.1273l47.593-30.2371c.845-.527 1.568-1.2623 2.112-2.1481.543-.8859.893-1.8982 1.022-2.9577 0-1.7108-1.41-2.2147-3.134-1.114l-47.593 30.237c-.843.5258-1.565 1.259-2.108 2.1424-.544.8834-.895 1.8931-1.025 2.9502ZM318.887 102.416c0 1.724 1.41 2.228 3.133 1.127l47.593-30.2372c.844-.5257 1.566-1.2589 2.109-2.1423.544-.8834.894-1.8931 1.025-2.9502 0-1.7241-1.41-2.228-3.134-1.1273L322.02 97.323c-.843.5258-1.565 1.259-2.108 2.1424-.544.8836-.895 1.8926-1.025 2.9506ZM318.887 121.076c0 1.724 1.41 2.228 3.133 1.127l47.593-30.2369c.844-.5258 1.566-1.2589 2.109-2.1423.544-.8834.894-1.8931 1.025-2.9502 0-1.7241-1.41-2.228-3.134-1.1273L322.02 115.983c-.843.526-1.565 1.259-2.108 2.143-.544.883-.895 1.893-1.025 2.95ZM260.182 177.067c0 1.724 1.398 2.228 3.134 1.128l106.333-67.636c.845-.524 1.568-1.257 2.112-2.14.543-.884.893-1.895 1.022-2.952 0-1.724-1.41-2.215-3.134-1.128l-106.333 67.636c-.846.523-1.569 1.256-2.113 2.14-.544.883-.893 1.894-1.021 2.952ZM260.182 195.726c0 1.724 1.398 2.228 3.134 1.127l106.333-67.555c.846-.528 1.568-1.263 2.112-2.149.544-.885.893-1.898 1.022-2.957 0-1.711-1.41-2.215-3.134-1.114l-106.333 67.556c-.846.523-1.569 1.255-2.113 2.139-.544.884-.893 1.895-1.021 2.953ZM260.182 214.399c0 1.71 1.398 2.214 3.134 1.114l106.333-67.556c.846-.527 1.568-1.263 2.112-2.148.544-.886.893-1.898 1.022-2.958 0-1.711-1.41-2.215-3.134-1.114l-106.333 67.556c-.847.525-1.571 1.259-2.115 2.145-.544.887-.893 1.9-1.019 2.961Z" fill="#455A64"/><path d="m191.643 413.274 34.264-164.832 190.926-121.306-34.264 164.845-190.926 121.293Z" fill="#02897A"/><path d="M238.356 261.346v122.261l44.062-27.996V233.363l-44.062 27.983Z" fill="#02897A"/><path opacity=".2" d="M238.356 261.346v122.261l44.062-27.996V233.363l-44.062 27.983Z" fill="#000"/><path d="M318.971 456.03c-3.748-3.076-39.879-33.459-58.246-76.918-19.549-46.205-19.525-100.101-19.525-120.378v-.637l130.98-83.205c0 20.463 0 74.439 19.633 120.803 17.945 42.438 52.691 72.436 58.199 77.024L318.971 456.03Z" fill="#fff"/><path d="M371.578 176.086c0 21.325.374 74.266 19.693 119.94 17.342 40.979 50.316 70.447 57.656 76.667l-129.919 82.541c-5.074-4.204-39.844-34.083-57.729-76.348-19.524-46.072-19.524-99.862-19.524-120.113v-.252l129.775-82.449.048.014Zm1.157-2.308L240.55 257.765c0 19.084-.362 74.532 19.584 121.678 19.633 46.27 58.753 77.383 58.753 77.383l132.221-84.001s-39.168-31.112-58.741-77.383c-19.957-47.146-19.584-102.593-19.584-121.677l-.048.013Z" fill="#02897A"/><path opacity=".7" d="M371.578 176.086c0 21.325.374 74.266 19.693 119.94 17.342 40.979 50.316 70.447 57.656 76.667l-129.919 82.541c-5.074-4.204-39.844-34.083-57.729-76.348-19.524-46.072-19.524-99.862-19.524-120.113v-.252l129.775-82.449.048.014Zm1.157-2.308L240.55 257.765c0 19.084-.362 74.532 19.584 121.678 19.633 46.27 58.753 77.383 58.753 77.383l132.221-84.001s-39.168-31.112-58.741-77.383c-19.957-47.146-19.584-102.593-19.584-121.677l-.048.013Z" fill="#fff"/><path d="m357.827 201.946-41.796 26.524c-.837.506-1.55 1.228-2.079 2.103-.529.875-.857 1.878-.958 2.923.06 1.684 1.518 2.162 3.242 1.061l41.808-26.524c.826-.502 1.532-1.214 2.058-2.076.526-.863.858-1.852.967-2.884-.073-1.75-1.507-2.228-3.242-1.127ZM358.718 220.049l-41.796 26.523c-.826.489-1.527 1.201-2.037 2.068s-.812 1.862-.879 2.892c.132 1.631 1.651 2.069 3.374.968l41.808-26.523c.823-.488 1.519-1.197 2.023-2.063.504-.865.799-1.858.858-2.884-.121-1.645-1.615-2.042-3.351-.981ZM360.394 237.647l-41.808 26.524c-1.724 1.101-2.977 3.289-2.772 4.867.205 1.578 1.783 1.989 3.519.889l41.808-26.524c1.723-1.101 2.953-3.276 2.736-4.854-.217-1.578-1.76-2.002-3.483-.902ZM362.9 254.715l-41.808 26.524c-1.723 1.101-2.916 3.249-2.627 4.787.289 1.539 1.928 1.884 3.616.783l41.796-26.524c1.735-1.101 2.892-3.236 2.603-4.774-.289-1.539-1.796-1.897-3.58-.796ZM366.299 271.213l-41.808 26.524c-1.723 1.101-2.844 3.196-2.41 4.668.434 1.472 2.085 1.804 3.808.703l41.808-26.524c1.736-1.101 2.82-3.183 2.411-4.668-.41-1.485-2.085-1.804-3.809-.703ZM370.71 287.114l-101.886 64.731c-1.724 1.101-2.772 3.143-2.302 4.562.47 1.419 2.265 1.685 3.989.584l101.887-64.731c1.735-1.101 2.735-3.13 2.265-4.562-.47-1.432-2.29-1.684-3.953-.584ZM376.073 302.299 274.198 367.03c-1.735 1.1-2.687 3.09-2.109 4.442.579 1.353 2.411 1.565 4.17.465l101.887-64.732c1.735-1.1 2.663-3.09 2.085-4.442-.579-1.353-2.422-1.552-4.158-.464ZM382.762 316.768l-101.887 64.731c-1.735 1.1-2.591 3.037-1.904 4.323.687 1.286 2.651 1.419 4.387.318l101.814-64.731c1.724-1.087 2.555-3.01 1.868-4.297-.687-1.286-2.591-1.445-4.278-.344ZM390.56 330.454l-101.875 64.717c-1.736 1.101-2.507 2.998-1.723 4.204.783 1.207 2.844 1.327 4.579.213l101.875-64.731c1.735-1.101 2.483-2.971 1.699-4.191-.783-1.22-2.82-1.313-4.555-.212ZM399.454 343.463l-101.887 64.718c-1.723 1.101-2.41 2.944-1.542 4.098.867 1.154 3 1.207 4.736.106l101.887-64.757c1.723-1.101 2.41-2.918 1.518-4.072-.892-1.154-2.977-1.233-4.712-.093ZM409.276 355.85l-101.85 64.717c-1.736 1.101-2.411 2.905-1.398 3.979 1.012 1.074 3.157 1.101 4.881 0l101.886-64.731c1.736-1.101 2.338-2.878 1.374-3.979-.964-1.1-3.133-1.074-4.893.014ZM420.123 367.693l-101.887 64.718c-1.723 1.1-2.29 2.864-1.205 3.912s3.302 1.008 5.038-.093l101.802-64.731c1.723-1.101 2.266-2.825 1.205-3.886-1.06-1.061-3.266-1.021-4.953.08Z" fill="#455A64"/><path d="m300.881 238.138-48.063 30.502c.531 19.163 2.519 46.801 9.799 74.638l48.075-30.503c-7.292-27.836-9.28-55.487-9.811-74.637Z" fill="#02897A"/><path opacity=".8" d="m300.881 238.138-48.063 30.502c.531 19.163 2.519 46.801 9.799 74.638l48.075-30.503c-7.292-27.836-9.28-55.487-9.811-74.637Z" fill="#11B5E4"/><path d="M272.415 264.423c.065-1.237-.11-2.475-.513-3.632-.404-1.157-1.026-2.207-1.825-3.079l-17.259 10.954c.145 5.066.386 10.729.808 16.83 2.245.284 4.516-.178 6.52-1.326 6.785-3.422 12.269-12.294 12.269-19.747Z" fill="#02897A"/><path opacity=".6" d="M272.415 264.423c.065-1.237-.11-2.475-.513-3.632-.404-1.157-1.026-2.207-1.825-3.079l-17.259 10.954c.145 5.066.386 10.729.808 16.83 2.245.284 4.516-.178 6.52-1.326 6.785-3.422 12.269-12.294 12.269-19.747Z" fill="#fff"/><path d="M306.606 294.474c-3.206-4.442-9.726-18.168-12.51-24.149-.109-.237-.281-.432-.492-.56-.211-.128-.452-.183-.692-.159-.24.024-.468.127-.655.295-.186.169-.322.395-.39.649-3.012 11.329-4.761 23.019-5.207 34.812-4.014-3.506-7.464-7.729-10.208-12.492-.117-.185-.279-.329-.468-.415-.189-.086-.396-.111-.598-.072-.201.039-.388.14-.539.292-.15.152-.258.349-.311.566-5.255 22.267-2.615 44.175-2.615 44.175l38.771-24.64c-1.615-6.154-2.953-12.281-4.086-18.302Z" fill="#02897A"/><path opacity=".6" d="M306.606 294.474c-3.206-4.442-9.726-18.168-12.51-24.149-.109-.237-.281-.432-.492-.56-.211-.128-.452-.183-.692-.159-.24.024-.468.127-.655.295-.186.169-.322.395-.39.649-3.012 11.329-4.761 23.019-5.207 34.812-4.014-3.506-7.464-7.729-10.208-12.492-.117-.185-.279-.329-.468-.415-.189-.086-.396-.111-.598-.072-.201.039-.388.14-.539.292-.15.152-.258.349-.311.566-5.255 22.267-2.615 44.175-2.615 44.175l38.771-24.64c-1.615-6.154-2.953-12.281-4.086-18.302Z" fill="#fff"/></svg>